<svg width="25" height="24" viewBox="0 0 25 24" fill="none" xmlns="http://www.w3.org/2000/svg">
<path d="M15.2727 22V18C15.4118 16.7473 15.0526 15.4901 14.2727 14.5C17.2727 14.5 20.2727 12.5 20.2727 9C20.3527 7.75 20.0027 6.52 19.2727 5.5C19.5527 4.35 19.5527 3.15 19.2727 2C19.2727 2 18.2727 2 16.2727 3.5C13.6327 3 10.9127 3 8.27271 3.5C6.27271 2 5.27271 2 5.27271 2C4.97271 3.15 4.97271 4.35 5.27271 5.5C4.54458 6.51588 4.19118 7.75279 4.27271 9C4.27271 12.5 7.27271 14.5 10.2727 14.5C9.88271 14.99 9.5927 15.55 9.4227 16.15C9.2527 16.75 9.20271 17.38 9.27271 18M9.27271 18V22M9.27271 18C4.7627 20 4.27271 16 2.27271 16" stroke="#5F9BFE" stroke-width="2" stroke-linecap="round" stroke-linejoin="round"/>
</svg>
