<svg width="46" height="1719" viewBox="0 0 46 1719" fill="none" xmlns="http://www.w3.org/2000/svg">
<g opacity="0.2">
<rect width="2" height="20" transform="translate(46) rotate(90)" fill="#0A0A0A"/>
<rect width="2" height="20" transform="translate(46 22.0312) rotate(90)" fill="#0A0A0A"/>
<rect width="2" height="20" transform="translate(46 44.0625) rotate(90)" fill="#0A0A0A"/>
<rect width="2" height="20" transform="translate(46 66.0938) rotate(90)" fill="#0A0A0A"/>
<rect width="2" height="30" transform="translate(46 88.125) rotate(90)" fill="#0A0A0A"/>
<path d="M1.89062 89.1626C1.89062 88.5793 1.99609 88.061 2.20703 87.6079C2.41797 87.1548 2.70833 86.7967 3.07812 86.5337C3.44792 86.2733 3.8724 86.1379 4.35156 86.1274L4.35156 88.0024C4.05729 88.0181 3.82031 88.1379 3.64062 88.3618C3.46354 88.5858 3.375 88.8527 3.375 89.1626C3.375 89.4048 3.42839 89.6196 3.53516 89.8071C3.64193 89.9946 3.79167 90.1418 3.98437 90.2485C4.17969 90.3553 4.40365 90.4074 4.65625 90.4048C4.91406 90.4074 5.13932 90.354 5.33203 90.2446C5.52474 90.1379 5.67448 89.9894 5.78125 89.7993C5.89062 89.6118 5.94531 89.3957 5.94531 89.1509C5.94792 88.9191 5.89714 88.6991 5.79297 88.4907C5.6888 88.285 5.54688 88.1287 5.36719 88.022L5.6875 86.3149L10 86.6626L10 91.7954L8.44141 91.7954L8.44141 88.2524L6.55469 88.0688L6.55469 88.1157C6.77604 88.2485 6.95833 88.4621 7.10156 88.7563C7.2474 89.0532 7.32031 89.3905 7.32031 89.7681C7.32031 90.2472 7.20833 90.6743 6.98437 91.0493C6.76302 91.4269 6.45573 91.7238 6.0625 91.9399C5.66927 92.1587 5.21875 92.2681 4.71094 92.2681C4.16146 92.2681 3.67448 92.1379 3.25 91.8774C2.82552 91.6196 2.49219 91.2576 2.25 90.7915C2.01042 90.328 1.89062 89.785 1.89062 89.1626Z" fill="#0A0A0A"/>
<rect width="2" height="20" transform="translate(46 108.125) rotate(90)" fill="#0A0A0A"/>
<rect width="2" height="20" transform="translate(46 130.156) rotate(90)" fill="#0A0A0A"/>
<rect width="2" height="20" transform="translate(46 152.188) rotate(90)" fill="#0A0A0A"/>
<rect width="2" height="20" transform="translate(46 174.219) rotate(90)" fill="#0A0A0A"/>
<rect width="2" height="30" transform="translate(46 196.25) rotate(90)" fill="#0A0A0A"/>
<path d="M10 194.906L2 194.906L2 192.976L8.19531 192.976L8.19531 192.929L7.10156 191.14L8.77344 191.14L10 193.113L10 194.906ZM1.80469 199.983C1.80469 199.285 1.97005 198.683 2.30078 198.178C2.63411 197.673 3.11198 197.284 3.73437 197.01C4.35937 196.737 5.11068 196.601 5.98828 196.604C6.86589 196.607 7.61068 196.743 8.22266 197.014C8.83724 197.288 9.30469 197.676 9.625 198.178C9.94792 198.683 10.1094 199.285 10.1094 199.983C10.1094 200.681 9.94792 201.282 9.625 201.788C9.30469 202.295 8.83724 202.686 8.22266 202.959C7.60807 203.233 6.86328 203.368 5.98828 203.366C5.10807 203.366 4.35547 203.229 3.73047 202.956C3.10547 202.682 2.6276 202.293 2.29687 201.788C1.96875 201.285 1.80469 200.683 1.80469 199.983ZM3.38672 199.983C3.38672 200.4 3.59896 200.737 4.02344 200.995C4.45052 201.252 5.10547 201.38 5.98828 201.377C6.56641 201.377 7.04297 201.319 7.41797 201.202C7.79557 201.084 8.07682 200.922 8.26172 200.713C8.44661 200.505 8.53906 200.262 8.53906 199.983C8.53906 199.569 8.32943 199.234 7.91016 198.979C7.49349 198.724 6.85286 198.595 5.98828 198.592C5.40234 198.59 4.91667 198.646 4.53125 198.76C4.14583 198.877 3.85807 199.042 3.66797 199.252C3.48047 199.463 3.38672 199.707 3.38672 199.983Z" fill="#0A0A0A"/>
<rect width="2" height="20" transform="translate(46 216.25) rotate(90)" fill="#0A0A0A"/>
<rect width="2" height="20" transform="translate(46 238.281) rotate(90)" fill="#0A0A0A"/>
<rect width="2" height="20" transform="translate(46 260.312) rotate(90)" fill="#0A0A0A"/>
<rect width="2" height="20" transform="translate(46 282.344) rotate(90)" fill="#0A0A0A"/>
<rect width="2" height="30" transform="translate(46 304.375) rotate(90)" fill="#0A0A0A"/>
<path d="M10 303.315L2 303.315L2 301.386L8.19531 301.386L8.19531 301.339L7.10156 299.55L8.77344 299.55L10 301.522L10 303.315ZM1.89062 308.146C1.89062 307.563 1.99609 307.045 2.20703 306.592C2.41797 306.139 2.70833 305.781 3.07812 305.518C3.44792 305.257 3.8724 305.122 4.35156 305.111L4.35156 306.986C4.05729 307.002 3.82031 307.122 3.64062 307.346C3.46354 307.57 3.375 307.837 3.375 308.146C3.375 308.389 3.42838 308.604 3.53516 308.791C3.64193 308.979 3.79167 309.126 3.98437 309.232C4.17969 309.339 4.40365 309.391 4.65625 309.389C4.91406 309.391 5.13932 309.338 5.33203 309.229C5.52474 309.122 5.67448 308.973 5.78125 308.783C5.89062 308.596 5.94531 308.38 5.94531 308.135C5.94792 307.903 5.89714 307.683 5.79297 307.475C5.6888 307.269 5.54687 307.113 5.36719 307.006L5.6875 305.299L10 305.646L10 310.779L8.44141 310.779L8.44141 307.236L6.55469 307.053L6.55469 307.1C6.77604 307.232 6.95833 307.446 7.10156 307.74C7.2474 308.037 7.32031 308.374 7.32031 308.752C7.32031 309.231 7.20833 309.658 6.98437 310.033C6.76302 310.411 6.45573 310.708 6.0625 310.924C5.66927 311.143 5.21875 311.252 4.71094 311.252C4.16146 311.252 3.67448 311.122 3.25 310.861C2.82552 310.604 2.49219 310.242 2.25 309.775C2.01042 309.312 1.89062 308.769 1.89062 308.146Z" fill="#0A0A0A"/>
<rect width="2" height="20" transform="translate(46 324.375) rotate(90)" fill="#0A0A0A"/>
<rect width="2" height="20" transform="translate(46 346.406) rotate(90)" fill="#0A0A0A"/>
<rect width="2" height="20" transform="translate(46 368.438) rotate(90)" fill="#0A0A0A"/>
<rect width="2" height="20" transform="translate(46 390.469) rotate(90)" fill="#0A0A0A"/>
<rect width="2" height="30" transform="translate(46 412.5) rotate(90)" fill="#0A0A0A"/>
<path d="M2 406.683L3.39062 406.683L5.94531 409.601C6.14323 409.82 6.32422 410.006 6.48828 410.16C6.65495 410.313 6.82161 410.431 6.98828 410.511C7.15755 410.592 7.34115 410.632 7.53906 410.632C7.76042 410.632 7.94922 410.584 8.10547 410.488C8.26432 410.391 8.38672 410.259 8.47266 410.089C8.55859 409.92 8.60156 409.726 8.60156 409.507C8.60156 409.286 8.55599 409.092 8.46484 408.925C8.3763 408.759 8.2474 408.628 8.07812 408.535C7.90885 408.444 7.70312 408.398 7.46094 408.398L7.46094 406.566C8.00521 406.566 8.47526 406.688 8.87109 406.933C9.26693 407.178 9.57161 407.522 9.78516 407.964C10.0013 408.41 10.1094 408.927 10.1094 409.515C10.1094 410.122 10.0078 410.649 9.80469 411.097C9.60156 411.545 9.31771 411.891 8.95313 412.136C8.59115 412.384 8.17057 412.507 7.69141 412.507C7.38672 412.507 7.08464 412.446 6.78516 412.324C6.48568 412.201 6.15495 411.981 5.79297 411.664C5.43099 411.348 4.9974 410.901 4.49219 410.32L3.60937 409.363L3.55859 409.363L3.55859 412.605L2 412.605L2 406.683ZM1.80469 417.006C1.80469 416.308 1.97005 415.707 2.30078 415.202C2.63411 414.696 3.11198 414.307 3.73437 414.034C4.35937 413.76 5.11068 413.625 5.98828 413.627C6.86589 413.63 7.61068 413.767 8.22266 414.038C8.83724 414.311 9.30469 414.699 9.625 415.202C9.94792 415.707 10.1094 416.308 10.1094 417.006C10.1094 417.704 9.94792 418.306 9.625 418.811C9.30469 419.319 8.83724 419.709 8.22266 419.983C7.60807 420.256 6.86328 420.392 5.98828 420.389C5.10807 420.389 4.35547 420.252 3.73047 419.979C3.10547 419.706 2.6276 419.316 2.29687 418.811C1.96875 418.308 1.80469 417.707 1.80469 417.006ZM3.38672 417.006C3.38672 417.423 3.59896 417.76 4.02344 418.018C4.45052 418.276 5.10547 418.403 5.98828 418.401C6.56641 418.401 7.04297 418.342 7.41797 418.225C7.79557 418.108 8.07682 417.945 8.26172 417.737C8.44661 417.528 8.53906 417.285 8.53906 417.006C8.53906 416.592 8.32943 416.258 7.91016 416.002C7.49349 415.747 6.85286 415.618 5.98828 415.616C5.40234 415.613 4.91667 415.669 4.53125 415.784C4.14583 415.901 3.85807 416.065 3.66797 416.276C3.48047 416.487 3.38672 416.73 3.38672 417.006Z" fill="#0A0A0A"/>
<rect width="2" height="20" transform="translate(46 432.5) rotate(90)" fill="#0A0A0A"/>
<rect width="2" height="20" transform="translate(46 454.531) rotate(90)" fill="#0A0A0A"/>
<rect width="2" height="20" transform="translate(46 476.562) rotate(90)" fill="#0A0A0A"/>
<rect width="2" height="20" transform="translate(46 498.594) rotate(90)" fill="#0A0A0A"/>
<rect width="2" height="30" transform="translate(46 520.625) rotate(90)" fill="#0A0A0A"/>
<path d="M2 515.093L3.39062 515.093L5.94531 518.011C6.14323 518.229 6.32422 518.416 6.48828 518.569C6.65495 518.723 6.82161 518.84 6.98828 518.921C7.15755 519.002 7.34115 519.042 7.53906 519.042C7.76042 519.042 7.94922 518.994 8.10547 518.897C8.26432 518.801 8.38672 518.668 8.47266 518.499C8.55859 518.33 8.60156 518.136 8.60156 517.917C8.60156 517.696 8.55599 517.502 8.46484 517.335C8.3763 517.168 8.2474 517.038 8.07812 516.944C7.90885 516.853 7.70312 516.808 7.46094 516.808L7.46094 514.976C8.00521 514.976 8.47526 515.098 8.87109 515.343C9.26693 515.588 9.57161 515.931 9.78516 516.374C10.0013 516.819 10.1094 517.336 10.1094 517.925C10.1094 518.532 10.0078 519.059 9.80469 519.507C9.60156 519.955 9.31771 520.301 8.95313 520.546C8.59115 520.793 8.17057 520.917 7.69141 520.917C7.38672 520.917 7.08464 520.856 6.78516 520.733C6.48568 520.611 6.15495 520.391 5.79297 520.073C5.43099 519.758 4.9974 519.31 4.49219 518.729L3.60937 517.772L3.55859 517.772L3.55859 521.015L2 521.015L2 515.093ZM1.89062 525.17C1.89062 524.587 1.99609 524.068 2.20703 523.615C2.41797 523.162 2.70833 522.804 3.07812 522.541C3.44792 522.281 3.8724 522.145 4.35156 522.135L4.35156 524.01C4.05729 524.025 3.82031 524.145 3.64062 524.369C3.46354 524.593 3.375 524.86 3.375 525.17C3.375 525.412 3.42838 525.627 3.53516 525.814C3.64193 526.002 3.79167 526.149 3.98437 526.256C4.17969 526.363 4.40365 526.415 4.65625 526.412C4.91406 526.415 5.13932 526.361 5.33203 526.252C5.52474 526.145 5.67448 525.997 5.78125 525.807C5.89062 525.619 5.94531 525.403 5.94531 525.158C5.94792 524.926 5.89714 524.706 5.79297 524.498C5.6888 524.292 5.54687 524.136 5.36719 524.029L5.6875 522.322L10 522.67L10 527.803L8.44141 527.803L8.44141 524.26L6.55469 524.076L6.55469 524.123C6.77604 524.256 6.95833 524.469 7.10156 524.764C7.2474 525.061 7.32031 525.398 7.32031 525.775C7.32031 526.255 7.20833 526.682 6.98437 527.057C6.76302 527.434 6.45573 527.731 6.0625 527.947C5.66927 528.166 5.21875 528.275 4.71094 528.275C4.16146 528.275 3.67448 528.145 3.25 527.885C2.82552 527.627 2.49219 527.265 2.25 526.799C2.01042 526.335 1.89062 525.792 1.89062 525.17Z" fill="#0A0A0A"/>
<rect width="2" height="20" transform="translate(46 540.625) rotate(90)" fill="#0A0A0A"/>
<rect width="2" height="20" transform="translate(46 562.656) rotate(90)" fill="#0A0A0A"/>
<rect width="2" height="20" transform="translate(46 584.688) rotate(90)" fill="#0A0A0A"/>
<rect width="2" height="20" transform="translate(46 606.719) rotate(90)" fill="#0A0A0A"/>
<rect width="2" height="30" transform="translate(46 628.75) rotate(90)" fill="#0A0A0A"/>
<path d="M1.89062 625.815C1.89062 625.206 1.99479 624.665 2.20312 624.194C2.41406 623.725 2.70443 623.355 3.07422 623.084C3.44401 622.814 3.86979 622.676 4.35156 622.67L4.35156 624.616C4.17708 624.624 4.02214 624.68 3.88672 624.784C3.75391 624.888 3.64974 625.03 3.57422 625.209C3.4987 625.389 3.46094 625.594 3.46094 625.823C3.46094 626.052 3.5013 626.254 3.58203 626.428C3.66536 626.605 3.77865 626.743 3.92187 626.842C4.06771 626.941 4.23437 626.989 4.42187 626.987C4.60937 626.989 4.77604 626.936 4.92187 626.827C5.06771 626.717 5.18099 626.562 5.26172 626.362C5.34245 626.164 5.38281 625.93 5.38281 625.659L5.38281 624.881L6.75781 624.881L6.75781 625.659C6.75781 625.896 6.79688 626.104 6.875 626.284C6.95313 626.466 7.0625 626.608 7.20312 626.709C7.34635 626.811 7.51042 626.861 7.69531 626.858C7.875 626.861 8.03255 626.818 8.16797 626.729C8.30599 626.643 8.41276 626.522 8.48828 626.366C8.5638 626.212 8.60156 626.034 8.60156 625.831C8.60156 625.617 8.5638 625.423 8.48828 625.249C8.41276 625.077 8.30599 624.94 8.16797 624.838C8.02995 624.737 7.86979 624.683 7.6875 624.678L7.6875 622.831C8.16406 622.836 8.58333 622.969 8.94531 623.229C9.3099 623.489 9.59505 623.844 9.80078 624.292C10.0065 624.742 10.1094 625.255 10.1094 625.831C10.1094 626.403 10.0091 626.907 9.80859 627.342C9.60807 627.777 9.33464 628.116 8.98828 628.358C8.64453 628.6 8.25521 628.721 7.82031 628.721C7.36979 628.724 6.9987 628.577 6.70703 628.28C6.41536 627.986 6.23568 627.607 6.16797 627.143L6.10547 627.143C6.03255 627.763 5.83203 628.23 5.50391 628.545C5.17578 628.863 4.76562 629.021 4.27344 629.018C3.8099 629.018 3.39844 628.881 3.03906 628.608C2.68229 628.337 2.40104 627.959 2.19531 627.475C1.99219 626.993 1.89062 626.44 1.89062 625.815ZM1.80469 633.417C1.80469 632.72 1.97005 632.118 2.30078 631.613C2.63411 631.108 3.11198 630.718 3.73437 630.445C4.35937 630.171 5.11068 630.036 5.98828 630.039C6.86589 630.041 7.61068 630.178 8.22266 630.449C8.83724 630.722 9.30469 631.11 9.625 631.613C9.94792 632.118 10.1094 632.72 10.1094 633.417C10.1094 634.115 9.94792 634.717 9.625 635.222C9.30469 635.73 8.83724 636.121 8.22266 636.394C7.60807 636.667 6.86328 636.803 5.98828 636.8C5.10807 636.8 4.35547 636.664 3.73047 636.39C3.10547 636.117 2.6276 635.727 2.29687 635.222C1.96875 634.72 1.80469 634.118 1.80469 633.417ZM3.38672 633.417C3.38672 633.834 3.59896 634.171 4.02344 634.429C4.45052 634.687 5.10547 634.815 5.98828 634.812C6.56641 634.812 7.04297 634.753 7.41797 634.636C7.79557 634.519 8.07682 634.356 8.26172 634.148C8.44661 633.94 8.53906 633.696 8.53906 633.417C8.53906 633.003 8.32943 632.669 7.91016 632.414C7.49349 632.158 6.85286 632.029 5.98828 632.027C5.40234 632.024 4.91667 632.08 4.53125 632.195C4.14583 632.312 3.85807 632.476 3.66797 632.687C3.48047 632.898 3.38672 633.141 3.38672 633.417Z" fill="#0A0A0A"/>
<rect width="2" height="20" transform="translate(46 648.75) rotate(90)" fill="#0A0A0A"/>
<rect width="2" height="20" transform="translate(46 670.781) rotate(90)" fill="#0A0A0A"/>
<rect width="2" height="20" transform="translate(46 692.812) rotate(90)" fill="#0A0A0A"/>
<rect width="2" height="20" transform="translate(46 714.844) rotate(90)" fill="#0A0A0A"/>
<rect width="2" height="30" transform="translate(46 736.875) rotate(90)" fill="#0A0A0A"/>
<path d="M1.89062 734.225C1.89062 733.615 1.99479 733.075 2.20312 732.604C2.41406 732.135 2.70443 731.765 3.07422 731.494C3.44401 731.223 3.86979 731.085 4.35156 731.08L4.35156 733.025C4.17708 733.033 4.02214 733.089 3.88672 733.193C3.75391 733.298 3.64974 733.439 3.57422 733.619C3.4987 733.799 3.46094 734.003 3.46094 734.232C3.46094 734.462 3.5013 734.663 3.58203 734.838C3.66536 735.015 3.77865 735.153 3.92187 735.252C4.06771 735.351 4.23437 735.399 4.42187 735.396C4.60937 735.399 4.77604 735.346 4.92187 735.236C5.06771 735.127 5.18099 734.972 5.26172 734.771C5.34245 734.574 5.38281 734.339 5.38281 734.068L5.38281 733.291L6.75781 733.291L6.75781 734.068C6.75781 734.305 6.79688 734.514 6.875 734.693C6.95313 734.876 7.0625 735.018 7.20312 735.119C7.34635 735.221 7.51042 735.27 7.69531 735.268C7.875 735.27 8.03255 735.227 8.16797 735.139C8.30599 735.053 8.41276 734.932 8.48828 734.775C8.5638 734.622 8.60156 734.443 8.60156 734.24C8.60156 734.027 8.5638 733.833 8.48828 733.658C8.41276 733.486 8.30599 733.35 8.16797 733.248C8.02995 733.146 7.86979 733.093 7.6875 733.088L7.6875 731.24C8.16406 731.245 8.58333 731.378 8.94531 731.639C9.3099 731.899 9.59505 732.253 9.80078 732.701C10.0065 733.152 10.1094 733.665 10.1094 734.24C10.1094 734.813 10.0091 735.317 9.80859 735.752C9.60807 736.187 9.33464 736.525 8.98828 736.768C8.64453 737.01 8.25521 737.131 7.82031 737.131C7.36979 737.133 6.9987 736.986 6.70703 736.689C6.41536 736.395 6.23568 736.016 6.16797 735.553L6.10547 735.553C6.03255 736.173 5.83203 736.64 5.50391 736.955C5.17578 737.273 4.76562 737.43 4.27344 737.428C3.8099 737.428 3.39844 737.291 3.03906 737.018C2.68229 736.747 2.40104 736.369 2.19531 735.885C1.99219 735.403 1.89062 734.85 1.89062 734.225ZM1.89062 741.581C1.89062 740.998 1.99609 740.479 2.20703 740.026C2.41797 739.573 2.70833 739.215 3.07812 738.952C3.44792 738.692 3.8724 738.556 4.35156 738.546L4.35156 740.421C4.05729 740.437 3.82031 740.556 3.64062 740.78C3.46354 741.004 3.375 741.271 3.375 741.581C3.375 741.823 3.42838 742.038 3.53516 742.226C3.64193 742.413 3.79167 742.56 3.98437 742.667C4.17969 742.774 4.40365 742.826 4.65625 742.823C4.91406 742.826 5.13932 742.772 5.33203 742.663C5.52474 742.556 5.67448 742.408 5.78125 742.218C5.89062 742.03 5.94531 741.814 5.94531 741.569C5.94792 741.338 5.89714 741.118 5.79297 740.909C5.6888 740.703 5.54687 740.547 5.36719 740.44L5.6875 738.733L10 739.081L10 744.214L8.44141 744.214L8.44141 740.671L6.55469 740.487L6.55469 740.534C6.77604 740.667 6.95833 740.881 7.10156 741.175C7.2474 741.472 7.32031 741.809 7.32031 742.187C7.32031 742.666 7.20833 743.093 6.98437 743.468C6.76302 743.845 6.45573 744.142 6.0625 744.358C5.66927 744.577 5.21875 744.687 4.71094 744.687C4.16146 744.687 3.67448 744.556 3.25 744.296C2.82552 744.038 2.49219 743.676 2.25 743.21C2.01042 742.746 1.89062 742.203 1.89062 741.581Z" fill="#0A0A0A"/>
<rect width="2" height="20" transform="translate(46 756.875) rotate(90)" fill="#0A0A0A"/>
<rect width="2" height="20" transform="translate(46 778.906) rotate(90)" fill="#0A0A0A"/>
<rect width="2" height="20" transform="translate(46 800.938) rotate(90)" fill="#0A0A0A"/>
<rect width="2" height="20" transform="translate(46 822.969) rotate(90)" fill="#0A0A0A"/>
<rect width="2" height="30" transform="translate(46 845) rotate(90)" fill="#0A0A0A"/>
<path d="M3.32813 838.801L4.83594 838.801L10 842.078L10 843.418L7.95312 843.418L7.95312 842.641L4.91406 840.723L4.85156 840.723L4.85156 845.469L3.32812 845.469L3.32813 838.801ZM2 842.664L3.78906 842.664L4.44922 842.703L10 842.703L10 844.512L2 844.512L2 842.664ZM1.80469 849.791C1.80469 849.093 1.97005 848.492 2.30078 847.986C2.63411 847.481 3.11198 847.092 3.73437 846.818C4.35937 846.545 5.11068 846.41 5.98828 846.412C6.86589 846.415 7.61068 846.551 8.22266 846.822C8.83724 847.096 9.30469 847.484 9.625 847.986C9.94792 848.492 10.1094 849.093 10.1094 849.791C10.1094 850.489 9.94792 851.09 9.625 851.596C9.30469 852.104 8.83724 852.494 8.22266 852.768C7.60807 853.041 6.86328 853.176 5.98828 853.174C5.10807 853.174 4.35547 853.037 3.73047 852.764C3.10547 852.49 2.6276 852.101 2.29687 851.596C1.96875 851.093 1.80469 850.492 1.80469 849.791ZM3.38672 849.791C3.38672 850.208 3.59896 850.545 4.02344 850.803C4.45052 851.061 5.10547 851.188 5.98828 851.186C6.56641 851.186 7.04297 851.127 7.41797 851.01C7.79557 850.893 8.07682 850.73 8.26172 850.521C8.44661 850.313 8.53906 850.07 8.53906 849.791C8.53906 849.377 8.32943 849.042 7.91016 848.787C7.49349 848.532 6.85286 848.403 5.98828 848.4C5.40234 848.398 4.91667 848.454 4.53125 848.568C4.14583 848.686 3.85807 848.85 3.66797 849.061C3.48047 849.271 3.38672 849.515 3.38672 849.791Z" fill="#0A0A0A"/>
<rect width="2" height="20" transform="translate(46 865) rotate(90)" fill="#0A0A0A"/>
<rect width="2" height="20" transform="translate(46 887.031) rotate(90)" fill="#0A0A0A"/>
<rect width="2" height="20" transform="translate(46 909.062) rotate(90)" fill="#0A0A0A"/>
<rect width="2" height="20" transform="translate(46 931.094) rotate(90)" fill="#0A0A0A"/>
<rect width="2" height="30" transform="translate(46 953.125) rotate(90)" fill="#0A0A0A"/>
<path d="M3.32813 947.21L4.83594 947.21L10 950.488L10 951.828L7.95312 951.828L7.95312 951.05L4.91406 949.132L4.85156 949.132L4.85156 953.878L3.32812 953.878L3.32813 947.21ZM2 951.074L3.78906 951.074L4.44922 951.113L10 951.113L10 952.921L2 952.921L2 951.074ZM1.89062 957.955C1.89062 957.371 1.99609 956.853 2.20703 956.4C2.41797 955.947 2.70833 955.589 3.07812 955.326C3.44792 955.065 3.8724 954.93 4.35156 954.919L4.35156 956.794C4.05729 956.81 3.82031 956.93 3.64062 957.154C3.46354 957.378 3.375 957.645 3.375 957.955C3.375 958.197 3.42838 958.412 3.53516 958.599C3.64193 958.787 3.79167 958.934 3.98437 959.041C4.17969 959.147 4.40365 959.199 4.65625 959.197C4.91406 959.199 5.13932 959.146 5.33203 959.037C5.52474 958.93 5.67448 958.781 5.78125 958.591C5.89062 958.404 5.94531 958.188 5.94531 957.943C5.94792 957.711 5.89714 957.491 5.79297 957.283C5.6888 957.077 5.54687 956.921 5.36719 956.814L5.6875 955.107L10 955.455L10 960.587L8.44141 960.587L8.44141 957.044L6.55469 956.861L6.55469 956.908C6.77604 957.041 6.95833 957.254 7.10156 957.548C7.2474 957.845 7.32031 958.182 7.32031 958.56C7.32031 959.039 7.20833 959.466 6.98437 959.841C6.76302 960.219 6.45573 960.516 6.0625 960.732C5.66927 960.951 5.21875 961.06 4.71094 961.06C4.16146 961.06 3.67448 960.93 3.25 960.669C2.82552 960.412 2.49219 960.05 2.25 959.583C2.01042 959.12 1.89062 958.577 1.89062 957.955Z" fill="#0A0A0A"/>
<rect width="2" height="20" transform="translate(46 973.125) rotate(90)" fill="#0A0A0A"/>
<rect width="2" height="20" transform="translate(46 995.156) rotate(90)" fill="#0A0A0A"/>
<rect width="2" height="20" transform="translate(46 1017.19) rotate(90)" fill="#0A0A0A"/>
<rect width="2" height="20" transform="translate(46 1039.22) rotate(90)" fill="#0A0A0A"/>
<rect width="2" height="30" transform="translate(46 1061.25) rotate(90)" fill="#0A0A0A"/>
<path d="M1.89062 1058.39C1.89062 1057.8 1.99609 1057.29 2.20703 1056.83C2.41797 1056.38 2.70833 1056.02 3.07812 1055.76C3.44792 1055.5 3.8724 1055.36 4.35156 1055.35L4.35156 1057.23C4.05729 1057.24 3.82031 1057.36 3.64062 1057.59C3.46354 1057.81 3.375 1058.08 3.375 1058.39C3.375 1058.63 3.42839 1058.85 3.53516 1059.03C3.64193 1059.22 3.79167 1059.37 3.98437 1059.47C4.17969 1059.58 4.40365 1059.63 4.65625 1059.63C4.91406 1059.63 5.13932 1059.58 5.33203 1059.47C5.52474 1059.36 5.67448 1059.22 5.78125 1059.02C5.89062 1058.84 5.94531 1058.62 5.94531 1058.38C5.94792 1058.14 5.89714 1057.92 5.79297 1057.72C5.6888 1057.51 5.54688 1057.35 5.36719 1057.25L5.6875 1055.54L10 1055.89L10 1061.02L8.44141 1061.02L8.44141 1057.48L6.55469 1057.29L6.55469 1057.34C6.77604 1057.47 6.95833 1057.69 7.10156 1057.98C7.2474 1058.28 7.32031 1058.62 7.32031 1058.99C7.32031 1059.47 7.20833 1059.9 6.98437 1060.27C6.76302 1060.65 6.45573 1060.95 6.0625 1061.17C5.66927 1061.38 5.21875 1061.49 4.71094 1061.49C4.16146 1061.49 3.67448 1061.36 3.25 1061.1C2.82552 1060.85 2.49219 1060.48 2.25 1060.02C2.01042 1059.55 1.89062 1059.01 1.89062 1058.39ZM1.80469 1065.86C1.80469 1065.17 1.97005 1064.56 2.30078 1064.06C2.63411 1063.55 3.11198 1063.16 3.73437 1062.89C4.35937 1062.62 5.11068 1062.48 5.98828 1062.48C6.86589 1062.49 7.61068 1062.62 8.22266 1062.9C8.83724 1063.17 9.30469 1063.56 9.625 1064.06C9.94792 1064.56 10.1094 1065.17 10.1094 1065.86C10.1094 1066.56 9.94792 1067.16 9.625 1067.67C9.30469 1068.18 8.83724 1068.57 8.22266 1068.84C7.60807 1069.11 6.86328 1069.25 5.98828 1069.25C5.10807 1069.25 4.35547 1069.11 3.73047 1068.84C3.10547 1068.56 2.6276 1068.17 2.29687 1067.67C1.96875 1067.17 1.80469 1066.56 1.80469 1065.86ZM3.38672 1065.86C3.38672 1066.28 3.59896 1066.62 4.02344 1066.88C4.45052 1067.13 5.10547 1067.26 5.98828 1067.26C6.56641 1067.26 7.04297 1067.2 7.41797 1067.08C7.79557 1066.97 8.07682 1066.8 8.26172 1066.59C8.44661 1066.39 8.53906 1066.14 8.53906 1065.86C8.53906 1065.45 8.32943 1065.12 7.91016 1064.86C7.49349 1064.6 6.85286 1064.48 5.98828 1064.47C5.40234 1064.47 4.91667 1064.53 4.53125 1064.64C4.14583 1064.76 3.85807 1064.92 3.66797 1065.13C3.48047 1065.34 3.38672 1065.59 3.38672 1065.86Z" fill="#0A0A0A"/>
<rect width="2" height="20" transform="translate(46 1081.25) rotate(90)" fill="#0A0A0A"/>
<rect width="2" height="20" transform="translate(46 1103.28) rotate(90)" fill="#0A0A0A"/>
<rect width="2" height="20" transform="translate(46 1125.31) rotate(90)" fill="#0A0A0A"/>
<rect width="2" height="20" transform="translate(46 1147.34) rotate(90)" fill="#0A0A0A"/>
<rect width="2" height="30" transform="translate(46 1169.38) rotate(90)" fill="#0A0A0A"/>
<path d="M1.89062 1166.57C1.89062 1166.13 1.96094 1165.72 2.10156 1165.31C2.24479 1164.91 2.47135 1164.56 2.78125 1164.24C3.09375 1163.93 3.5026 1163.69 4.00781 1163.51C4.51562 1163.33 5.13411 1163.24 5.86328 1163.24C6.52214 1163.24 7.11328 1163.32 7.63672 1163.48C8.16276 1163.64 8.60938 1163.87 8.97656 1164.16C9.34375 1164.46 9.6237 1164.81 9.81641 1165.22C10.0117 1165.64 10.1094 1166.1 10.1094 1166.61C10.1094 1167.17 10 1167.66 9.78125 1168.09C9.5651 1168.52 9.27344 1168.86 8.90625 1169.12C8.54167 1169.38 8.13542 1169.53 7.6875 1169.58L7.6875 1167.68C7.9401 1167.62 8.13151 1167.49 8.26172 1167.3C8.39453 1167.11 8.46094 1166.88 8.46094 1166.61C8.46094 1166.12 8.2487 1165.76 7.82422 1165.51C7.39974 1165.27 6.83203 1165.15 6.12109 1165.15L6.12109 1165.2C6.36068 1165.31 6.56641 1165.46 6.73828 1165.67C6.91016 1165.88 7.04167 1166.11 7.13281 1166.38C7.22656 1166.64 7.27344 1166.93 7.27344 1167.23C7.27344 1167.71 7.16276 1168.13 6.94141 1168.5C6.72005 1168.86 6.41667 1169.15 6.03125 1169.36C5.64844 1169.57 5.20964 1169.67 4.71484 1169.67C4.15755 1169.67 3.66536 1169.54 3.23828 1169.28C2.8138 1169.02 2.48307 1168.65 2.24609 1168.19C2.00911 1167.72 1.89062 1167.18 1.89062 1166.57ZM3.375 1166.56C3.375 1166.8 3.43099 1167.01 3.54297 1167.2C3.65495 1167.38 3.80729 1167.53 4 1167.64C4.19271 1167.74 4.41016 1167.8 4.65234 1167.79C4.89714 1167.8 5.11458 1167.74 5.30469 1167.64C5.49479 1167.53 5.64583 1167.39 5.75781 1167.2C5.86979 1167.02 5.92578 1166.8 5.92578 1166.56C5.92578 1166.39 5.89323 1166.23 5.82812 1166.08C5.76302 1165.92 5.67187 1165.79 5.55469 1165.68C5.4401 1165.57 5.30469 1165.49 5.14844 1165.42C4.99479 1165.36 4.82813 1165.33 4.64844 1165.33C4.41146 1165.33 4.19661 1165.38 4.00391 1165.49C3.8112 1165.6 3.65755 1165.74 3.54297 1165.93C3.43099 1166.11 3.375 1166.32 3.375 1166.56ZM1.80469 1174.07C1.80469 1173.38 1.97005 1172.78 2.30078 1172.27C2.63411 1171.76 3.11198 1171.38 3.73437 1171.1C4.35937 1170.83 5.11068 1170.69 5.98828 1170.7C6.86589 1170.7 7.61068 1170.84 8.22266 1171.11C8.83724 1171.38 9.30469 1171.77 9.625 1172.27C9.94792 1172.78 10.1094 1173.38 10.1094 1174.07C10.1094 1174.77 9.94792 1175.37 9.625 1175.88C9.30469 1176.39 8.83724 1176.78 8.22266 1177.05C7.60807 1177.32 6.86328 1177.46 5.98828 1177.46C5.10807 1177.46 4.35547 1177.32 3.73047 1177.05C3.10547 1176.77 2.6276 1176.38 2.29687 1175.88C1.96875 1175.38 1.80469 1174.78 1.80469 1174.07ZM3.38672 1174.07C3.38672 1174.49 3.59896 1174.83 4.02344 1175.09C4.45052 1175.34 5.10547 1175.47 5.98828 1175.47C6.56641 1175.47 7.04297 1175.41 7.41797 1175.29C7.79557 1175.18 8.07682 1175.01 8.26172 1174.81C8.44661 1174.6 8.53906 1174.35 8.53906 1174.07C8.53906 1173.66 8.32943 1173.33 7.91016 1173.07C7.49349 1172.82 6.85286 1172.69 5.98828 1172.68C5.40234 1172.68 4.91667 1172.74 4.53125 1172.85C4.14583 1172.97 3.85807 1173.13 3.66797 1173.34C3.48047 1173.56 3.38672 1173.8 3.38672 1174.07Z" fill="#0A0A0A"/>
<rect width="2" height="20" transform="translate(46 1189.38) rotate(90)" fill="#0A0A0A"/>
<rect width="2" height="20" transform="translate(46 1211.41) rotate(90)" fill="#0A0A0A"/>
<rect width="2" height="20" transform="translate(46 1233.44) rotate(90)" fill="#0A0A0A"/>
<rect width="2" height="20" transform="translate(46 1255.47) rotate(90)" fill="#0A0A0A"/>
<rect width="2" height="30" transform="translate(46 1277.5) rotate(90)" fill="#0A0A0A"/>
<path d="M2 1272.3L8.39063 1275.53L8.44141 1275.53L8.44141 1271.76L10 1271.76L10 1277.53L8.42969 1277.53L2 1274.29L2 1272.3ZM1.80469 1281.73C1.80469 1281.03 1.97005 1280.43 2.30078 1279.92C2.63411 1279.42 3.11198 1279.03 3.73437 1278.75C4.35937 1278.48 5.11068 1278.35 5.98828 1278.35C6.86589 1278.35 7.61068 1278.49 8.22266 1278.76C8.83724 1279.03 9.30469 1279.42 9.625 1279.92C9.94792 1280.43 10.1094 1281.03 10.1094 1281.73C10.1094 1282.42 9.94792 1283.03 9.625 1283.53C9.30469 1284.04 8.83724 1284.43 8.22266 1284.7C7.60807 1284.98 6.86328 1285.11 5.98828 1285.11C5.10807 1285.11 4.35547 1284.97 3.73047 1284.7C3.10547 1284.43 2.6276 1284.04 2.29687 1283.53C1.96875 1283.03 1.80469 1282.43 1.80469 1281.73ZM3.38672 1281.73C3.38672 1282.14 3.59896 1282.48 4.02344 1282.74C4.45052 1283 5.10547 1283.12 5.98828 1283.12C6.56641 1283.12 7.04297 1283.06 7.41797 1282.95C7.79557 1282.83 8.07682 1282.67 8.26172 1282.46C8.44661 1282.25 8.53906 1282.01 8.53906 1281.73C8.53906 1281.31 8.32943 1280.98 7.91016 1280.72C7.49349 1280.47 6.85286 1280.34 5.98828 1280.34C5.40234 1280.33 4.91667 1280.39 4.53125 1280.5C4.14583 1280.62 3.85807 1280.79 3.66797 1281C3.48047 1281.21 3.38672 1281.45 3.38672 1281.73Z" fill="#0A0A0A"/>
<rect width="2" height="20" transform="translate(46 1297.5) rotate(90)" fill="#0A0A0A"/>
<rect width="2" height="20" transform="translate(46 1319.53) rotate(90)" fill="#0A0A0A"/>
<rect width="2" height="20" transform="translate(46 1341.56) rotate(90)" fill="#0A0A0A"/>
<rect width="2" height="20" transform="translate(46 1363.59) rotate(90)" fill="#0A0A0A"/>
<rect width="2" height="30" transform="translate(46 1385.62) rotate(90)" fill="#0A0A0A"/>
<path d="M2 1380.68L8.39063 1383.91L8.44141 1383.91L8.44141 1380.13L10 1380.13L10 1385.91L8.42969 1385.91L2 1382.67L2 1380.68ZM1.89062 1389.92C1.89062 1389.34 1.99609 1388.82 2.20703 1388.37C2.41797 1387.92 2.70833 1387.56 3.07812 1387.29C3.44792 1387.03 3.8724 1386.9 4.35156 1386.89L4.35156 1388.76C4.05729 1388.78 3.82031 1388.9 3.64062 1389.12C3.46354 1389.35 3.375 1389.61 3.375 1389.92C3.375 1390.17 3.42838 1390.38 3.53516 1390.57C3.64193 1390.75 3.79167 1390.9 3.98437 1391.01C4.17969 1391.12 4.40365 1391.17 4.65625 1391.17C4.91406 1391.17 5.13932 1391.11 5.33203 1391C5.52474 1390.9 5.67448 1390.75 5.78125 1390.56C5.89062 1390.37 5.94531 1390.16 5.94531 1389.91C5.94792 1389.68 5.89714 1389.46 5.79297 1389.25C5.6888 1389.05 5.54687 1388.89 5.36719 1388.78L5.6875 1387.08L10 1387.42L10 1392.56L8.44141 1392.56L8.44141 1389.01L6.55469 1388.83L6.55469 1388.88C6.77604 1389.01 6.95833 1389.22 7.10156 1389.52C7.2474 1389.81 7.32031 1390.15 7.32031 1390.53C7.32031 1391.01 7.20833 1391.43 6.98437 1391.81C6.76302 1392.19 6.45573 1392.48 6.0625 1392.7C5.66927 1392.92 5.21875 1393.03 4.71094 1393.03C4.16146 1393.03 3.67448 1392.9 3.25 1392.64C2.82552 1392.38 2.49219 1392.02 2.25 1391.55C2.01042 1391.09 1.89062 1390.55 1.89062 1389.92Z" fill="#0A0A0A"/>
<rect width="2" height="20" transform="translate(46 1405.62) rotate(90)" fill="#0A0A0A"/>
<rect width="2" height="20" transform="translate(46 1427.66) rotate(90)" fill="#0A0A0A"/>
<rect width="2" height="20" transform="translate(46 1449.69) rotate(90)" fill="#0A0A0A"/>
<rect width="2" height="20" transform="translate(46 1471.72) rotate(90)" fill="#0A0A0A"/>
<rect width="2" height="30" transform="translate(46 1493.75) rotate(90)" fill="#0A0A0A"/>
<path d="M1.89062 1490.85C1.89062 1490.23 1.98958 1489.67 2.1875 1489.18C2.38802 1488.69 2.65885 1488.31 3 1488.03C3.34375 1487.76 3.73177 1487.62 4.16406 1487.62C4.49479 1487.62 4.79818 1487.7 5.07422 1487.86C5.35026 1488.02 5.57943 1488.23 5.76172 1488.5C5.94661 1488.77 6.0651 1489.08 6.11719 1489.42L6.17969 1489.42C6.26042 1488.97 6.46484 1488.61 6.79297 1488.33C7.12109 1488.05 7.50521 1487.92 7.94531 1487.92C8.36198 1487.92 8.73307 1488.04 9.05859 1488.29C9.38411 1488.55 9.64063 1488.9 9.82813 1489.34C10.0156 1489.78 10.1094 1490.28 10.1094 1490.85C10.1094 1491.41 10.0156 1491.92 9.82812 1492.36C9.64062 1492.8 9.38411 1493.15 9.05859 1493.4C8.73307 1493.65 8.36198 1493.78 7.94531 1493.78C7.5026 1493.78 7.11719 1493.64 6.78906 1493.36C6.46354 1493.08 6.26042 1492.72 6.17969 1492.28L6.11719 1492.28C6.0651 1492.62 5.94661 1492.92 5.76172 1493.19C5.57943 1493.46 5.35026 1493.68 5.07422 1493.84C4.79818 1494 4.49479 1494.08 4.16406 1494.08C3.73177 1494.08 3.34375 1493.94 3 1493.66C2.65885 1493.38 2.38802 1493 2.1875 1492.51C1.98958 1492.03 1.89062 1491.47 1.89062 1490.85ZM3.26172 1490.85C3.26172 1491.09 3.30599 1491.29 3.39453 1491.47C3.48568 1491.65 3.61198 1491.79 3.77344 1491.9C3.9349 1492 4.11719 1492.05 4.32031 1492.05C4.52865 1492.05 4.71354 1492 4.875 1491.9C5.03646 1491.79 5.16276 1491.65 5.25391 1491.47C5.34766 1491.29 5.39453 1491.08 5.39453 1490.85C5.39453 1490.62 5.34766 1490.41 5.25391 1490.23C5.16276 1490.05 5.03646 1489.91 4.875 1489.8C4.71354 1489.7 4.52865 1489.65 4.32031 1489.65C4.11719 1489.65 3.9349 1489.7 3.77344 1489.8C3.61458 1489.9 3.48958 1490.04 3.39844 1490.22C3.30729 1490.41 3.26172 1490.61 3.26172 1490.85ZM6.75781 1490.85C6.75781 1491.05 6.79948 1491.23 6.88281 1491.39C6.96615 1491.55 7.08203 1491.67 7.23047 1491.76C7.37891 1491.85 7.54687 1491.9 7.73437 1491.9C7.92187 1491.9 8.08724 1491.85 8.23047 1491.76C8.3737 1491.67 8.48568 1491.55 8.56641 1491.39C8.64974 1491.24 8.69141 1491.05 8.69141 1490.85C8.69141 1490.65 8.64974 1490.46 8.56641 1490.31C8.48568 1490.15 8.3737 1490.02 8.23047 1489.93C8.08724 1489.85 7.92187 1489.8 7.73437 1489.8C7.54687 1489.8 7.37891 1489.85 7.23047 1489.93C7.08464 1490.03 6.96875 1490.15 6.88281 1490.31C6.79948 1490.47 6.75781 1490.65 6.75781 1490.85ZM1.80469 1498.47C1.80469 1497.77 1.97005 1497.17 2.30078 1496.66C2.63411 1496.16 3.11198 1495.77 3.73437 1495.49C4.35937 1495.22 5.11068 1495.08 5.98828 1495.09C6.86589 1495.09 7.61068 1495.23 8.22266 1495.5C8.83724 1495.77 9.30469 1496.16 9.625 1496.66C9.94792 1497.17 10.1094 1497.77 10.1094 1498.47C10.1094 1499.16 9.94792 1499.77 9.625 1500.27C9.30469 1500.78 8.83724 1501.17 8.22266 1501.44C7.60807 1501.72 6.86328 1501.85 5.98828 1501.85C5.10807 1501.85 4.35547 1501.71 3.73047 1501.44C3.10547 1501.17 2.6276 1500.78 2.29687 1500.27C1.96875 1499.77 1.80469 1499.17 1.80469 1498.47ZM3.38672 1498.47C3.38672 1498.88 3.59896 1499.22 4.02344 1499.48C4.45052 1499.74 5.10547 1499.86 5.98828 1499.86C6.56641 1499.86 7.04297 1499.8 7.41797 1499.68C7.79557 1499.57 8.07682 1499.4 8.26172 1499.2C8.44661 1498.99 8.53906 1498.74 8.53906 1498.47C8.53906 1498.05 8.32943 1497.72 7.91016 1497.46C7.49349 1497.21 6.85286 1497.08 5.98828 1497.08C5.40234 1497.07 4.91667 1497.13 4.53125 1497.24C4.14583 1497.36 3.85807 1497.52 3.66797 1497.74C3.48047 1497.95 3.38672 1498.19 3.38672 1498.47Z" fill="#0A0A0A"/>
<rect width="2" height="20" transform="translate(46 1513.75) rotate(90)" fill="#0A0A0A"/>
<rect width="2" height="20" transform="translate(46 1535.78) rotate(90)" fill="#0A0A0A"/>
<rect width="2" height="20" transform="translate(46 1557.81) rotate(90)" fill="#0A0A0A"/>
<rect width="2" height="20" transform="translate(46 1579.84) rotate(90)" fill="#0A0A0A"/>
<rect width="2" height="30" transform="translate(46 1601.88) rotate(90)" fill="#0A0A0A"/>
<path d="M1.89062 1599.26C1.89062 1598.64 1.98958 1598.08 2.1875 1597.59C2.38802 1597.1 2.65885 1596.72 3 1596.44C3.34375 1596.17 3.73177 1596.03 4.16406 1596.03C4.49479 1596.03 4.79818 1596.11 5.07422 1596.27C5.35026 1596.42 5.57943 1596.64 5.76172 1596.91C5.94661 1597.18 6.0651 1597.49 6.11719 1597.82L6.17969 1597.82C6.26042 1597.38 6.46484 1597.02 6.79297 1596.74C7.12109 1596.46 7.50521 1596.32 7.94531 1596.32C8.36198 1596.32 8.73307 1596.45 9.05859 1596.7C9.38411 1596.96 9.64063 1597.31 9.82813 1597.75C10.0156 1598.19 10.1094 1598.69 10.1094 1599.26C10.1094 1599.82 10.0156 1600.33 9.82813 1600.77C9.64062 1601.21 9.38411 1601.56 9.05859 1601.81C8.73307 1602.06 8.36198 1602.19 7.94531 1602.19C7.5026 1602.19 7.11719 1602.05 6.78906 1601.77C6.46354 1601.48 6.26042 1601.13 6.17969 1600.69L6.11719 1600.69C6.0651 1601.03 5.94661 1601.33 5.76172 1601.6C5.57943 1601.87 5.35026 1602.09 5.07422 1602.25C4.79818 1602.41 4.49479 1602.49 4.16406 1602.49C3.73177 1602.49 3.34375 1602.35 3 1602.07C2.65885 1601.79 2.38802 1601.41 2.1875 1600.92C1.98958 1600.44 1.89062 1599.88 1.89062 1599.26ZM3.26172 1599.26C3.26172 1599.5 3.30599 1599.7 3.39453 1599.88C3.48568 1600.06 3.61198 1600.2 3.77344 1600.31C3.9349 1600.41 4.11719 1600.46 4.32031 1600.46C4.52865 1600.46 4.71354 1600.41 4.875 1600.31C5.03646 1600.2 5.16276 1600.06 5.25391 1599.88C5.34766 1599.7 5.39453 1599.49 5.39453 1599.26C5.39453 1599.03 5.34766 1598.82 5.25391 1598.64C5.16276 1598.46 5.03646 1598.32 4.875 1598.21C4.71354 1598.11 4.52865 1598.06 4.32031 1598.06C4.11719 1598.06 3.9349 1598.11 3.77344 1598.21C3.61458 1598.31 3.48958 1598.45 3.39844 1598.63C3.30729 1598.82 3.26172 1599.02 3.26172 1599.26ZM6.75781 1599.26C6.75781 1599.46 6.79948 1599.64 6.88281 1599.8C6.96615 1599.96 7.08203 1600.08 7.23047 1600.17C7.37891 1600.26 7.54687 1600.31 7.73437 1600.31C7.92187 1600.31 8.08724 1600.26 8.23047 1600.17C8.3737 1600.08 8.48568 1599.96 8.56641 1599.8C8.64974 1599.65 8.69141 1599.46 8.69141 1599.26C8.69141 1599.06 8.64974 1598.87 8.56641 1598.72C8.48568 1598.56 8.3737 1598.43 8.23047 1598.34C8.08724 1598.26 7.92187 1598.21 7.73437 1598.21C7.54687 1598.21 7.37891 1598.26 7.23047 1598.34C7.08464 1598.44 6.96875 1598.56 6.88281 1598.72C6.79948 1598.88 6.75781 1599.06 6.75781 1599.26ZM1.89062 1606.63C1.89062 1606.05 1.99609 1605.53 2.20703 1605.07C2.41797 1604.62 2.70833 1604.26 3.07812 1604C3.44792 1603.74 3.8724 1603.6 4.35156 1603.59L4.35156 1605.47C4.05729 1605.48 3.82031 1605.6 3.64062 1605.83C3.46354 1606.05 3.375 1606.32 3.375 1606.63C3.375 1606.87 3.42838 1607.09 3.53516 1607.27C3.64193 1607.46 3.79167 1607.61 3.98437 1607.72C4.17969 1607.82 4.40365 1607.87 4.65625 1607.87C4.91406 1607.87 5.13932 1607.82 5.33203 1607.71C5.52474 1607.6 5.67448 1607.46 5.78125 1607.27C5.89062 1607.08 5.94531 1606.86 5.94531 1606.62C5.94792 1606.39 5.89714 1606.17 5.79297 1605.96C5.6888 1605.75 5.54687 1605.6 5.36719 1605.49L5.6875 1603.78L10 1604.13L10 1609.26L8.44141 1609.26L8.44141 1605.72L6.55469 1605.54L6.55469 1605.58C6.77604 1605.72 6.95833 1605.93 7.10156 1606.22C7.2474 1606.52 7.32031 1606.86 7.32031 1607.23C7.32031 1607.71 7.20833 1608.14 6.98437 1608.52C6.76302 1608.89 6.45573 1609.19 6.0625 1609.41C5.66927 1609.63 5.21875 1609.73 4.71094 1609.73C4.16146 1609.73 3.67448 1609.6 3.25 1609.34C2.82552 1609.09 2.49219 1608.72 2.25 1608.26C2.01042 1607.79 1.89062 1607.25 1.89062 1606.63Z" fill="#0A0A0A"/>
<rect width="2" height="20" transform="translate(46 1621.88) rotate(90)" fill="#0A0A0A"/>
<rect width="2" height="20" transform="translate(46 1643.91) rotate(90)" fill="#0A0A0A"/>
<rect width="2" height="20" transform="translate(46 1665.94) rotate(90)" fill="#0A0A0A"/>
<rect width="2" height="20" transform="translate(46 1687.97) rotate(90)" fill="#0A0A0A"/>
<rect width="2" height="30" transform="translate(46 1710) rotate(90)" fill="#0A0A0A"/>
<path d="M10.1094 1707C10.1094 1707.44 10.0378 1707.86 9.89453 1708.26C9.75391 1708.65 9.52865 1709.01 9.21875 1709.32C8.91146 1709.63 8.50651 1709.88 8.00391 1710.06C7.5013 1710.24 6.88802 1710.33 6.16406 1710.33C5.4974 1710.33 4.89974 1710.25 4.37109 1710.1C3.84505 1709.94 3.39714 1709.71 3.02734 1709.41C2.65755 1709.12 2.375 1708.76 2.17969 1708.35C1.98698 1707.94 1.89062 1707.47 1.89062 1706.96C1.89062 1706.4 1.9987 1705.9 2.21484 1705.47C2.43359 1705.05 2.72786 1704.7 3.09766 1704.45C3.46745 1704.19 3.88151 1704.04 4.33984 1703.99L4.33984 1705.89C4.07422 1705.95 3.8737 1706.08 3.73828 1706.27C3.60547 1706.46 3.53906 1706.69 3.53906 1706.96C3.53906 1707.45 3.7513 1707.82 4.17578 1708.06C4.60026 1708.3 5.17708 1708.42 5.90625 1708.42L5.90625 1708.38C5.66667 1708.26 5.46094 1708.11 5.28906 1707.9C5.11719 1707.7 4.98568 1707.46 4.89453 1707.19C4.80339 1706.92 4.75781 1706.64 4.75781 1706.35C4.75781 1705.87 4.86719 1705.44 5.08594 1705.08C5.30469 1704.71 5.60547 1704.42 5.98828 1704.22C6.37109 1704.01 6.80859 1703.91 7.30078 1703.9C7.85286 1703.9 8.33984 1704.03 8.76172 1704.29C9.1862 1704.55 9.51693 1704.91 9.75391 1705.38C9.99349 1705.85 10.112 1706.39 10.1094 1707ZM8.625 1707.01C8.625 1706.77 8.56901 1706.56 8.45703 1706.37C8.34505 1706.19 8.19401 1706.04 8.00391 1705.94C7.8138 1705.83 7.60026 1705.78 7.36328 1705.78C7.1263 1705.78 6.91276 1705.83 6.72266 1705.94C6.53255 1706.05 6.38151 1706.19 6.26953 1706.37C6.15755 1706.56 6.10156 1706.77 6.10156 1707.01C6.10156 1707.18 6.13411 1707.35 6.19922 1707.5C6.26432 1707.65 6.35417 1707.78 6.46875 1707.89C6.58594 1708 6.72135 1708.09 6.875 1708.15C7.02865 1708.22 7.19271 1708.25 7.36719 1708.25C7.59896 1708.24 7.8099 1708.19 8 1708.08C8.1901 1707.98 8.34115 1707.83 8.45313 1707.64C8.56771 1707.46 8.625 1707.25 8.625 1707.01ZM1.80469 1714.7C1.80469 1714 1.97005 1713.4 2.30078 1712.9C2.63411 1712.39 3.11198 1712 3.73437 1711.73C4.35937 1711.45 5.11068 1711.32 5.98828 1711.32C6.86589 1711.32 7.61068 1711.46 8.22266 1711.73C8.83724 1712 9.30469 1712.39 9.625 1712.9C9.94792 1713.4 10.1094 1714 10.1094 1714.7C10.1094 1715.4 9.94792 1716 9.625 1716.5C9.30469 1717.01 8.83724 1717.4 8.22266 1717.68C7.60807 1717.95 6.86328 1718.09 5.98828 1718.08C5.10807 1718.08 4.35547 1717.95 3.73047 1717.67C3.10547 1717.4 2.6276 1717.01 2.29687 1716.5C1.96875 1716 1.80469 1715.4 1.80469 1714.7ZM3.38672 1714.7C3.38672 1715.12 3.59896 1715.45 4.02344 1715.71C4.45052 1715.97 5.10547 1716.1 5.98828 1716.09C6.56641 1716.09 7.04297 1716.04 7.41797 1715.92C7.79557 1715.8 8.07682 1715.64 8.26172 1715.43C8.44661 1715.22 8.53906 1714.98 8.53906 1714.7C8.53906 1714.29 8.32943 1713.95 7.91016 1713.7C7.49349 1713.44 6.85286 1713.31 5.98828 1713.31C5.40234 1713.31 4.91667 1713.36 4.53125 1713.48C4.14583 1713.59 3.85807 1713.76 3.66797 1713.97C3.48047 1714.18 3.38672 1714.42 3.38672 1714.7Z" fill="#0A0A0A"/>
</g>
</svg>
