<svg width="12306" height="128" viewBox="0 0 12306 128" fill="none" xmlns="http://www.w3.org/2000/svg">
<rect width="4" height="60" fill="#0A0A0A"/>
<rect width="4" height="60" transform="translate(146.456)" fill="#0A0A0A"/>
<rect width="4" height="60" transform="translate(292.912)" fill="#0A0A0A"/>
<rect width="4" height="60" transform="translate(439.368)" fill="#0A0A0A"/>
<rect width="6" height="90" transform="translate(584.823)" fill="#0A0A0A"/>
<path d="M563.202 122.239C561.93 122.239 560.799 122.009 559.81 121.548C558.822 121.088 558.04 120.455 557.467 119.648C556.898 118.841 556.603 117.915 556.58 116.869H560.671C560.705 117.511 560.967 118.028 561.455 118.42C561.944 118.807 562.526 119 563.202 119C563.731 119 564.2 118.884 564.609 118.651C565.018 118.418 565.339 118.091 565.572 117.67C565.805 117.244 565.918 116.756 565.913 116.205C565.918 115.642 565.802 115.151 565.563 114.73C565.33 114.31 565.006 113.983 564.592 113.75C564.183 113.511 563.711 113.392 563.177 113.392C562.671 113.386 562.191 113.497 561.736 113.724C561.288 113.952 560.947 114.261 560.714 114.653L556.989 113.955L557.748 104.545H568.947V107.946H561.217L560.816 112.062H560.918C561.208 111.58 561.674 111.182 562.316 110.869C562.964 110.551 563.7 110.392 564.523 110.392C565.569 110.392 566.501 110.636 567.319 111.125C568.143 111.608 568.79 112.278 569.262 113.136C569.739 113.994 569.978 114.977 569.978 116.085C569.978 117.284 569.694 118.347 569.126 119.273C568.563 120.199 567.773 120.926 566.756 121.455C565.745 121.977 564.56 122.239 563.202 122.239ZM577.484 122V108.909H581.447V111.312H581.592C581.865 110.517 582.325 109.889 582.973 109.429C583.621 108.969 584.393 108.739 585.291 108.739C586.2 108.739 586.979 108.972 587.626 109.438C588.274 109.903 588.686 110.528 588.862 111.312H588.999C589.243 110.534 589.72 109.912 590.43 109.446C591.141 108.974 591.979 108.739 592.945 108.739C594.183 108.739 595.189 109.136 595.962 109.932C596.734 110.722 597.121 111.807 597.121 113.188V122H592.953V114.142C592.953 113.489 592.785 112.991 592.45 112.651C592.115 112.304 591.68 112.131 591.146 112.131C590.572 112.131 590.121 112.318 589.791 112.693C589.467 113.062 589.305 113.56 589.305 114.185V122H585.3V114.099C585.3 113.491 585.135 113.011 584.805 112.659C584.476 112.307 584.041 112.131 583.501 112.131C583.138 112.131 582.817 112.219 582.538 112.395C582.26 112.565 582.041 112.81 581.882 113.128C581.729 113.446 581.652 113.821 581.652 114.253V122H577.484ZM599.703 122V108.909H603.871V122H599.703ZM601.791 107.384C601.206 107.384 600.703 107.19 600.283 106.804C599.862 106.412 599.652 105.94 599.652 105.389C599.652 104.844 599.862 104.378 600.283 103.991C600.703 103.599 601.206 103.403 601.791 103.403C602.382 103.403 602.885 103.599 603.3 103.991C603.72 104.378 603.93 104.844 603.93 105.389C603.93 105.94 603.72 106.412 603.3 106.804C602.885 107.19 602.382 107.384 601.791 107.384ZM610.691 114.534V122H606.523V108.909H610.486V111.312H610.631C610.921 110.511 611.415 109.884 612.114 109.429C612.813 108.969 613.646 108.739 614.611 108.739C615.532 108.739 616.33 108.946 617.006 109.361C617.688 109.77 618.217 110.344 618.592 111.082C618.972 111.815 619.16 112.673 619.154 113.656V122H614.986V114.474C614.992 113.747 614.808 113.179 614.433 112.77C614.063 112.361 613.549 112.156 612.89 112.156C612.452 112.156 612.066 112.253 611.731 112.446C611.401 112.634 611.146 112.903 610.964 113.256C610.788 113.608 610.697 114.034 610.691 114.534Z" fill="#0A0A0A"/>
<rect width="4" height="60" transform="translate(729.823)" fill="#0A0A0A"/>
<rect width="4" height="60" transform="translate(876.279)" fill="#0A0A0A"/>
<rect width="4" height="60" transform="translate(1022.74)" fill="#0A0A0A"/>
<rect width="4" height="60" transform="translate(1169.19)" fill="#0A0A0A"/>
<rect width="6" height="90" transform="translate(1314.65)" fill="#0A0A0A"/>
<path d="M1287.83 104.545V122H1283.62V108.483H1283.52L1279.61 110.869V107.222L1283.92 104.545H1287.83ZM1298.91 122.426C1297.38 122.426 1296.07 122.065 1294.97 121.344C1293.87 120.616 1293.02 119.574 1292.42 118.216C1291.82 116.852 1291.53 115.213 1291.53 113.298C1291.54 111.384 1291.84 109.759 1292.43 108.423C1293.03 107.082 1293.87 106.062 1294.97 105.364C1296.07 104.659 1297.38 104.307 1298.91 104.307C1300.43 104.307 1301.74 104.659 1302.84 105.364C1303.95 106.062 1304.8 107.082 1305.4 108.423C1306 109.764 1306.29 111.389 1306.29 113.298C1306.29 115.219 1305.99 116.861 1305.39 118.224C1304.8 119.588 1303.95 120.631 1302.84 121.352C1301.75 122.068 1300.43 122.426 1298.91 122.426ZM1298.91 118.974C1299.82 118.974 1300.55 118.511 1301.11 117.585C1301.68 116.653 1301.95 115.224 1301.95 113.298C1301.95 112.037 1301.82 110.997 1301.57 110.179C1301.31 109.355 1300.95 108.741 1300.5 108.338C1300.05 107.935 1299.51 107.733 1298.91 107.733C1298 107.733 1297.27 108.19 1296.72 109.105C1296.16 110.014 1295.88 111.412 1295.87 113.298C1295.87 114.577 1295.99 115.636 1296.24 116.477C1296.49 117.318 1296.85 117.946 1297.31 118.361C1297.77 118.77 1298.3 118.974 1298.91 118.974ZM1313.89 122V108.909H1317.86V111.312H1318C1318.27 110.517 1318.73 109.889 1319.38 109.429C1320.03 108.969 1320.8 108.739 1321.7 108.739C1322.61 108.739 1323.39 108.972 1324.04 109.438C1324.68 109.903 1325.1 110.528 1325.27 111.312H1325.41C1325.65 110.534 1326.13 109.912 1326.84 109.446C1327.55 108.974 1328.39 108.739 1329.35 108.739C1330.59 108.739 1331.6 109.136 1332.37 109.932C1333.14 110.722 1333.53 111.807 1333.53 113.188V122H1329.36V114.142C1329.36 113.489 1329.19 112.991 1328.86 112.651C1328.52 112.304 1328.09 112.131 1327.56 112.131C1326.98 112.131 1326.53 112.318 1326.2 112.693C1325.88 113.062 1325.71 113.56 1325.71 114.185V122H1321.71V114.099C1321.71 113.491 1321.54 113.011 1321.21 112.659C1320.89 112.307 1320.45 112.131 1319.91 112.131C1319.55 112.131 1319.23 112.219 1318.95 112.395C1318.67 112.565 1318.45 112.81 1318.29 113.128C1318.14 113.446 1318.06 113.821 1318.06 114.253V122H1313.89ZM1336.11 122V108.909H1340.28V122H1336.11ZM1338.2 107.384C1337.62 107.384 1337.11 107.19 1336.69 106.804C1336.27 106.412 1336.06 105.94 1336.06 105.389C1336.06 104.844 1336.27 104.378 1336.69 103.991C1337.11 103.599 1337.62 103.403 1338.2 103.403C1338.79 103.403 1339.29 103.599 1339.71 103.991C1340.13 104.378 1340.34 104.844 1340.34 105.389C1340.34 105.94 1340.13 106.412 1339.71 106.804C1339.29 107.19 1338.79 107.384 1338.2 107.384ZM1347.1 114.534V122H1342.93V108.909H1346.9V111.312H1347.04C1347.33 110.511 1347.82 109.884 1348.52 109.429C1349.22 108.969 1350.05 108.739 1351.02 108.739C1351.94 108.739 1352.74 108.946 1353.42 109.361C1354.1 109.77 1354.63 110.344 1355 111.082C1355.38 111.815 1355.57 112.673 1355.56 113.656V122H1351.4V114.474C1351.4 113.747 1351.22 113.179 1350.84 112.77C1350.47 112.361 1349.96 112.156 1349.3 112.156C1348.86 112.156 1348.48 112.253 1348.14 112.446C1347.81 112.634 1347.55 112.903 1347.37 113.256C1347.2 113.608 1347.11 114.034 1347.1 114.534Z" fill="#0A0A0A"/>
<rect width="4" height="60" transform="translate(1459.65)" fill="#0A0A0A"/>
<rect width="4" height="60" transform="translate(1606.1)" fill="#0A0A0A"/>
<rect width="4" height="60" transform="translate(1752.56)" fill="#0A0A0A"/>
<rect width="4" height="60" transform="translate(1899.01)" fill="#0A0A0A"/>
<rect width="6" height="90" transform="translate(2044.47)" fill="#0A0A0A"/>
<path d="M2018.27 104.545V122H2014.06V108.483H2013.96L2010.06 110.869V107.222L2014.36 104.545H2018.27ZM2028.81 122.239C2027.54 122.239 2026.41 122.009 2025.42 121.548C2024.43 121.088 2023.65 120.455 2023.08 119.648C2022.51 118.841 2022.22 117.915 2022.19 116.869H2026.28C2026.32 117.511 2026.58 118.028 2027.07 118.42C2027.56 118.807 2028.14 119 2028.81 119C2029.34 119 2029.81 118.884 2030.22 118.651C2030.63 118.418 2030.95 118.091 2031.18 117.67C2031.42 117.244 2031.53 116.756 2031.52 116.205C2031.53 115.642 2031.41 115.151 2031.18 114.73C2030.94 114.31 2030.62 113.983 2030.2 113.75C2029.79 113.511 2029.32 113.392 2028.79 113.392C2028.28 113.386 2027.8 113.497 2027.35 113.724C2026.9 113.952 2026.56 114.261 2026.33 114.653L2022.6 113.955L2023.36 104.545H2034.56V107.946H2026.83L2026.43 112.062H2026.53C2026.82 111.58 2027.29 111.182 2027.93 110.869C2028.58 110.551 2029.31 110.392 2030.14 110.392C2031.18 110.392 2032.11 110.636 2032.93 111.125C2033.75 111.608 2034.4 112.278 2034.87 113.136C2035.35 113.994 2035.59 114.977 2035.59 116.085C2035.59 117.284 2035.31 118.347 2034.74 119.273C2034.18 120.199 2033.39 120.926 2032.37 121.455C2031.36 121.977 2030.17 122.239 2028.81 122.239ZM2043.1 122V108.909H2047.06V111.312H2047.2C2047.48 110.517 2047.94 109.889 2048.59 109.429C2049.23 108.969 2050.01 108.739 2050.9 108.739C2051.81 108.739 2052.59 108.972 2053.24 109.438C2053.89 109.903 2054.3 110.528 2054.47 111.312H2054.61C2054.85 110.534 2055.33 109.912 2056.04 109.446C2056.75 108.974 2057.59 108.739 2058.56 108.739C2059.8 108.739 2060.8 109.136 2061.57 109.932C2062.35 110.722 2062.73 111.807 2062.73 113.188V122H2058.57V114.142C2058.57 113.489 2058.4 112.991 2058.06 112.651C2057.73 112.304 2057.29 112.131 2056.76 112.131C2056.18 112.131 2055.73 112.318 2055.4 112.693C2055.08 113.062 2054.92 113.56 2054.92 114.185V122H2050.91V114.099C2050.91 113.491 2050.75 113.011 2050.42 112.659C2050.09 112.307 2049.65 112.131 2049.11 112.131C2048.75 112.131 2048.43 112.219 2048.15 112.395C2047.87 112.565 2047.65 112.81 2047.49 113.128C2047.34 113.446 2047.26 113.821 2047.26 114.253V122H2043.1ZM2065.32 122V108.909H2069.48V122H2065.32ZM2067.4 107.384C2066.82 107.384 2066.32 107.19 2065.89 106.804C2065.47 106.412 2065.26 105.94 2065.26 105.389C2065.26 104.844 2065.47 104.378 2065.89 103.991C2066.32 103.599 2066.82 103.403 2067.4 103.403C2067.99 103.403 2068.5 103.599 2068.91 103.991C2069.33 104.378 2069.54 104.844 2069.54 105.389C2069.54 105.94 2069.33 106.412 2068.91 106.804C2068.5 107.19 2067.99 107.384 2067.4 107.384ZM2076.3 114.534V122H2072.14V108.909H2076.1V111.312H2076.24C2076.53 110.511 2077.03 109.884 2077.73 109.429C2078.43 108.969 2079.26 108.739 2080.22 108.739C2081.14 108.739 2081.94 108.946 2082.62 109.361C2083.3 109.77 2083.83 110.344 2084.2 111.082C2084.58 111.815 2084.77 112.673 2084.77 113.656V122H2080.6V114.474C2080.6 113.747 2080.42 113.179 2080.04 112.77C2079.68 112.361 2079.16 112.156 2078.5 112.156C2078.06 112.156 2077.68 112.253 2077.34 112.446C2077.01 112.634 2076.76 112.903 2076.58 113.256C2076.4 113.608 2076.31 114.034 2076.3 114.534Z" fill="#0A0A0A"/>
<rect width="4" height="60" transform="translate(2189.47)" fill="#0A0A0A"/>
<rect width="4" height="60" transform="translate(2335.93)" fill="#0A0A0A"/>
<rect width="4" height="60" transform="translate(2482.38)" fill="#0A0A0A"/>
<rect width="4" height="60" transform="translate(2628.84)" fill="#0A0A0A"/>
<rect width="6" height="90" transform="translate(2774.29)" fill="#0A0A0A"/>
<path d="M2737.72 122V118.966L2744.08 113.392C2744.56 112.96 2744.97 112.565 2745.3 112.207C2745.64 111.844 2745.89 111.48 2746.07 111.116C2746.25 110.747 2746.33 110.347 2746.33 109.915C2746.33 109.432 2746.23 109.02 2746.02 108.679C2745.81 108.332 2745.52 108.065 2745.15 107.878C2744.78 107.69 2744.36 107.597 2743.88 107.597C2743.4 107.597 2742.97 107.696 2742.61 107.895C2742.25 108.088 2741.96 108.369 2741.76 108.739C2741.56 109.108 2741.46 109.557 2741.46 110.085H2737.46C2737.46 108.898 2737.73 107.872 2738.26 107.009C2738.8 106.145 2739.55 105.48 2740.51 105.014C2741.49 104.543 2742.61 104.307 2743.9 104.307C2745.22 104.307 2746.37 104.528 2747.35 104.972C2748.33 105.415 2749.08 106.034 2749.62 106.83C2750.16 107.619 2750.43 108.537 2750.43 109.582C2750.43 110.247 2750.29 110.906 2750.02 111.56C2749.76 112.213 2749.28 112.935 2748.58 113.724C2747.9 114.514 2746.92 115.46 2745.65 116.562L2743.56 118.489V118.599H2750.64V122H2737.72ZM2760.24 122.426C2758.72 122.426 2757.41 122.065 2756.3 121.344C2755.2 120.616 2754.35 119.574 2753.76 118.216C2753.16 116.852 2752.86 115.213 2752.87 113.298C2752.88 111.384 2753.17 109.759 2753.76 108.423C2754.36 107.082 2755.21 106.062 2756.3 105.364C2757.41 104.659 2758.72 104.307 2760.24 104.307C2761.76 104.307 2763.08 104.659 2764.18 105.364C2765.29 106.062 2766.14 107.082 2766.74 108.423C2767.33 109.764 2767.63 111.389 2767.62 113.298C2767.62 115.219 2767.32 116.861 2766.73 118.224C2766.13 119.588 2765.28 120.631 2764.18 121.352C2763.08 122.068 2761.77 122.426 2760.24 122.426ZM2760.24 118.974C2761.15 118.974 2761.89 118.511 2762.45 117.585C2763.01 116.653 2763.29 115.224 2763.28 113.298C2763.28 112.037 2763.16 110.997 2762.9 110.179C2762.64 109.355 2762.29 108.741 2761.84 108.338C2761.38 107.935 2760.85 107.733 2760.24 107.733C2759.34 107.733 2758.61 108.19 2758.05 109.105C2757.49 110.014 2757.21 111.412 2757.21 113.298C2757.2 114.577 2757.32 115.636 2757.57 116.477C2757.83 117.318 2758.19 117.946 2758.65 118.361C2759.11 118.77 2759.64 118.974 2760.24 118.974ZM2775.23 122V108.909H2779.19V111.312H2779.34C2779.61 110.517 2780.07 109.889 2780.72 109.429C2781.37 108.969 2782.14 108.739 2783.04 108.739C2783.94 108.739 2784.72 108.972 2785.37 109.438C2786.02 109.903 2786.43 110.528 2786.61 111.312H2786.74C2786.99 110.534 2787.46 109.912 2788.17 109.446C2788.88 108.974 2789.72 108.739 2790.69 108.739C2791.93 108.739 2792.93 109.136 2793.71 109.932C2794.48 110.722 2794.87 111.807 2794.87 113.188V122H2790.7V114.142C2790.7 113.489 2790.53 112.991 2790.19 112.651C2789.86 112.304 2789.42 112.131 2788.89 112.131C2788.32 112.131 2787.87 112.318 2787.54 112.693C2787.21 113.062 2787.05 113.56 2787.05 114.185V122H2783.04V114.099C2783.04 113.491 2782.88 113.011 2782.55 112.659C2782.22 112.307 2781.79 112.131 2781.25 112.131C2780.88 112.131 2780.56 112.219 2780.28 112.395C2780 112.565 2779.79 112.81 2779.63 113.128C2779.47 113.446 2779.4 113.821 2779.4 114.253V122H2775.23ZM2797.45 122V108.909H2801.62V122H2797.45ZM2799.54 107.384C2798.95 107.384 2798.45 107.19 2798.03 106.804C2797.61 106.412 2797.4 105.94 2797.4 105.389C2797.4 104.844 2797.61 104.378 2798.03 103.991C2798.45 103.599 2798.95 103.403 2799.54 103.403C2800.13 103.403 2800.63 103.599 2801.04 103.991C2801.46 104.378 2801.67 104.844 2801.67 105.389C2801.67 105.94 2801.46 106.412 2801.04 106.804C2800.63 107.19 2800.13 107.384 2799.54 107.384ZM2808.44 114.534V122H2804.27V108.909H2808.23V111.312H2808.38C2808.67 110.511 2809.16 109.884 2809.86 109.429C2810.56 108.969 2811.39 108.739 2812.36 108.739C2813.28 108.739 2814.07 108.946 2814.75 109.361C2815.43 109.77 2815.96 110.344 2816.34 111.082C2816.72 111.815 2816.9 112.673 2816.9 113.656V122H2812.73V114.474C2812.74 113.747 2812.55 113.179 2812.18 112.77C2811.81 112.361 2811.29 112.156 2810.63 112.156C2810.2 112.156 2809.81 112.253 2809.48 112.446C2809.15 112.634 2808.89 112.903 2808.71 113.256C2808.53 113.608 2808.44 114.034 2808.44 114.534Z" fill="#0A0A0A"/>
<rect width="4" height="60" transform="translate(2919.29)" fill="#0A0A0A"/>
<rect width="4" height="60" transform="translate(3065.75)" fill="#0A0A0A"/>
<rect width="4" height="60" transform="translate(3212.21)" fill="#0A0A0A"/>
<rect width="4" height="60" transform="translate(3358.66)" fill="#0A0A0A"/>
<rect width="6" height="90" transform="translate(3504.12)" fill="#0A0A0A"/>
<path d="M3468.16 122V118.966L3474.53 113.392C3475.01 112.96 3475.41 112.565 3475.75 112.207C3476.08 111.844 3476.34 111.48 3476.52 111.116C3476.69 110.747 3476.78 110.347 3476.78 109.915C3476.78 109.432 3476.67 109.02 3476.46 108.679C3476.25 108.332 3475.96 108.065 3475.59 107.878C3475.23 107.69 3474.8 107.597 3474.32 107.597C3473.84 107.597 3473.42 107.696 3473.05 107.895C3472.69 108.088 3472.41 108.369 3472.2 108.739C3472 109.108 3471.9 109.557 3471.9 110.085H3467.91C3467.91 108.898 3468.17 107.872 3468.71 107.009C3469.24 106.145 3469.99 105.48 3470.96 105.014C3471.93 104.543 3473.06 104.307 3474.34 104.307C3475.67 104.307 3476.82 104.528 3477.79 104.972C3478.77 105.415 3479.53 106.034 3480.06 106.83C3480.6 107.619 3480.87 108.537 3480.87 109.582C3480.87 110.247 3480.74 110.906 3480.47 111.56C3480.2 112.213 3479.72 112.935 3479.03 113.724C3478.34 114.514 3477.36 115.46 3476.1 116.562L3474.01 118.489V118.599H3481.08V122H3468.16ZM3490.15 122.239C3488.88 122.239 3487.75 122.009 3486.76 121.548C3485.77 121.088 3484.99 120.455 3484.41 119.648C3483.85 118.841 3483.55 117.915 3483.53 116.869H3487.62C3487.65 117.511 3487.91 118.028 3488.4 118.42C3488.89 118.807 3489.47 119 3490.15 119C3490.68 119 3491.15 118.884 3491.56 118.651C3491.96 118.418 3492.29 118.091 3492.52 117.67C3492.75 117.244 3492.87 116.756 3492.86 116.205C3492.87 115.642 3492.75 115.151 3492.51 114.73C3492.28 114.31 3491.95 113.983 3491.54 113.75C3491.13 113.511 3490.66 113.392 3490.12 113.392C3489.62 113.386 3489.14 113.497 3488.68 113.724C3488.23 113.952 3487.89 114.261 3487.66 114.653L3483.94 113.955L3484.69 104.545H3495.89V107.946H3488.16L3487.76 112.062H3487.87C3488.16 111.58 3488.62 111.182 3489.26 110.869C3489.91 110.551 3490.65 110.392 3491.47 110.392C3492.52 110.392 3493.45 110.636 3494.27 111.125C3495.09 111.608 3495.74 112.278 3496.21 113.136C3496.69 113.994 3496.92 114.977 3496.92 116.085C3496.92 117.284 3496.64 118.347 3496.07 119.273C3495.51 120.199 3494.72 120.926 3493.7 121.455C3492.69 121.977 3491.51 122.239 3490.15 122.239ZM3504.43 122V108.909H3508.39V111.312H3508.54C3508.81 110.517 3509.27 109.889 3509.92 109.429C3510.57 108.969 3511.34 108.739 3512.24 108.739C3513.15 108.739 3513.93 108.972 3514.57 109.438C3515.22 109.903 3515.63 110.528 3515.81 111.312H3515.95C3516.19 110.534 3516.67 109.912 3517.38 109.446C3518.09 108.974 3518.93 108.739 3519.89 108.739C3521.13 108.739 3522.14 109.136 3522.91 109.932C3523.68 110.722 3524.07 111.807 3524.07 113.188V122H3519.9V114.142C3519.9 113.489 3519.73 112.991 3519.4 112.651C3519.06 112.304 3518.63 112.131 3518.09 112.131C3517.52 112.131 3517.07 112.318 3516.74 112.693C3516.41 113.062 3516.25 113.56 3516.25 114.185V122H3512.25V114.099C3512.25 113.491 3512.08 113.011 3511.75 112.659C3511.42 112.307 3510.99 112.131 3510.45 112.131C3510.08 112.131 3509.76 112.219 3509.49 112.395C3509.21 112.565 3508.99 112.81 3508.83 113.128C3508.68 113.446 3508.6 113.821 3508.6 114.253V122H3504.43ZM3526.65 122V108.909H3530.82V122H3526.65ZM3528.74 107.384C3528.15 107.384 3527.65 107.19 3527.23 106.804C3526.81 106.412 3526.6 105.94 3526.6 105.389C3526.6 104.844 3526.81 104.378 3527.23 103.991C3527.65 103.599 3528.15 103.403 3528.74 103.403C3529.33 103.403 3529.83 103.599 3530.25 103.991C3530.67 104.378 3530.88 104.844 3530.88 105.389C3530.88 105.94 3530.67 106.412 3530.25 106.804C3529.83 107.19 3529.33 107.384 3528.74 107.384ZM3537.64 114.534V122H3533.47V108.909H3537.43V111.312H3537.58C3537.87 110.511 3538.36 109.884 3539.06 109.429C3539.76 108.969 3540.59 108.739 3541.56 108.739C3542.48 108.739 3543.28 108.946 3543.95 109.361C3544.64 109.77 3545.16 110.344 3545.54 111.082C3545.92 111.815 3546.11 112.673 3546.1 113.656V122H3541.93V114.474C3541.94 113.747 3541.75 113.179 3541.38 112.77C3541.01 112.361 3540.5 112.156 3539.84 112.156C3539.4 112.156 3539.01 112.253 3538.68 112.446C3538.35 112.634 3538.09 112.903 3537.91 113.256C3537.73 113.608 3537.64 114.034 3537.64 114.534Z" fill="#0A0A0A"/>
<rect width="4" height="60" transform="translate(3649.12)" fill="#0A0A0A"/>
<rect width="4" height="60" transform="translate(3795.57)" fill="#0A0A0A"/>
<rect width="4" height="60" transform="translate(3942.03)" fill="#0A0A0A"/>
<rect width="4" height="60" transform="translate(4088.49)" fill="#0A0A0A"/>
<rect width="6" height="90" transform="translate(4233.94)" fill="#0A0A0A"/>
<path d="M4203.65 122.239C4202.32 122.239 4201.14 122.011 4200.12 121.557C4199.09 121.097 4198.29 120.463 4197.7 119.656C4197.1 118.849 4196.8 117.92 4196.79 116.869H4201.04C4201.05 117.25 4201.18 117.588 4201.4 117.884C4201.63 118.173 4201.94 118.401 4202.33 118.565C4202.72 118.73 4203.17 118.812 4203.67 118.812C4204.17 118.812 4204.61 118.724 4204.99 118.548C4205.38 118.366 4205.68 118.119 4205.89 117.807C4206.11 117.489 4206.22 117.125 4206.21 116.716C4206.22 116.307 4206.1 115.943 4205.86 115.625C4205.62 115.307 4205.28 115.06 4204.85 114.884C4204.41 114.707 4203.9 114.619 4203.31 114.619H4201.62V111.619H4203.31C4203.83 111.619 4204.28 111.534 4204.68 111.364C4205.07 111.193 4205.38 110.955 4205.6 110.648C4205.83 110.335 4205.93 109.977 4205.93 109.574C4205.93 109.182 4205.84 108.838 4205.65 108.543C4205.46 108.241 4205.2 108.009 4204.85 107.844C4204.52 107.679 4204.13 107.597 4203.69 107.597C4203.22 107.597 4202.8 107.679 4202.42 107.844C4202.04 108.009 4201.74 108.241 4201.52 108.543C4201.3 108.844 4201.18 109.193 4201.17 109.591H4197.14C4197.15 108.551 4197.44 107.636 4198.01 106.847C4198.58 106.051 4199.35 105.429 4200.33 104.98C4201.31 104.531 4202.43 104.307 4203.69 104.307C4204.94 104.307 4206.04 104.526 4206.99 104.963C4207.93 105.401 4208.67 105.997 4209.2 106.753C4209.73 107.503 4209.99 108.352 4209.99 109.301C4210 110.284 4209.68 111.094 4209.03 111.73C4208.39 112.366 4207.56 112.759 4206.55 112.906V113.043C4207.9 113.202 4208.92 113.639 4209.61 114.355C4210.3 115.071 4210.65 115.966 4210.64 117.04C4210.64 118.051 4210.34 118.949 4209.75 119.733C4209.16 120.511 4208.33 121.125 4207.28 121.574C4206.22 122.017 4205.02 122.239 4203.65 122.239ZM4220.24 122.426C4218.72 122.426 4217.41 122.065 4216.3 121.344C4215.2 120.616 4214.35 119.574 4213.75 118.216C4213.16 116.852 4212.86 115.213 4212.87 113.298C4212.87 111.384 4213.17 109.759 4213.76 108.423C4214.36 107.082 4215.21 106.062 4216.3 105.364C4217.41 104.659 4218.72 104.307 4220.24 104.307C4221.76 104.307 4223.08 104.659 4224.18 105.364C4225.29 106.062 4226.14 107.082 4226.73 108.423C4227.33 109.764 4227.63 111.389 4227.62 113.298C4227.62 115.219 4227.32 116.861 4226.73 118.224C4226.13 119.588 4225.28 120.631 4224.18 121.352C4223.08 122.068 4221.77 122.426 4220.24 122.426ZM4220.24 118.974C4221.15 118.974 4221.89 118.511 4222.45 117.585C4223.01 116.653 4223.29 115.224 4223.28 113.298C4223.28 112.037 4223.16 110.997 4222.9 110.179C4222.64 109.355 4222.29 108.741 4221.83 108.338C4221.38 107.935 4220.85 107.733 4220.24 107.733C4219.34 107.733 4218.61 108.19 4218.05 109.105C4217.49 110.014 4217.21 111.412 4217.21 113.298C4217.2 114.577 4217.32 115.636 4217.57 116.477C4217.83 117.318 4218.19 117.946 4218.65 118.361C4219.11 118.77 4219.64 118.974 4220.24 118.974ZM4235.23 122V108.909H4239.19V111.312H4239.34C4239.61 110.517 4240.07 109.889 4240.72 109.429C4241.36 108.969 4242.14 108.739 4243.03 108.739C4243.94 108.739 4244.72 108.972 4245.37 109.438C4246.02 109.903 4246.43 110.528 4246.61 111.312H4246.74C4246.99 110.534 4247.46 109.912 4248.17 109.446C4248.88 108.974 4249.72 108.739 4250.69 108.739C4251.93 108.739 4252.93 109.136 4253.71 109.932C4254.48 110.722 4254.86 111.807 4254.86 113.188V122H4250.7V114.142C4250.7 113.489 4250.53 112.991 4250.19 112.651C4249.86 112.304 4249.42 112.131 4248.89 112.131C4248.32 112.131 4247.86 112.318 4247.53 112.693C4247.21 113.062 4247.05 113.56 4247.05 114.185V122H4243.04V114.099C4243.04 113.491 4242.88 113.011 4242.55 112.659C4242.22 112.307 4241.78 112.131 4241.24 112.131C4240.88 112.131 4240.56 112.219 4240.28 112.395C4240 112.565 4239.78 112.81 4239.63 113.128C4239.47 113.446 4239.4 113.821 4239.4 114.253V122H4235.23ZM4257.45 122V108.909H4261.61V122H4257.45ZM4259.53 107.384C4258.95 107.384 4258.45 107.19 4258.03 106.804C4257.61 106.412 4257.4 105.94 4257.4 105.389C4257.4 104.844 4257.61 104.378 4258.03 103.991C4258.45 103.599 4258.95 103.403 4259.53 103.403C4260.13 103.403 4260.63 103.599 4261.04 103.991C4261.46 104.378 4261.67 104.844 4261.67 105.389C4261.67 105.94 4261.46 106.412 4261.04 106.804C4260.63 107.19 4260.13 107.384 4259.53 107.384ZM4268.43 114.534V122H4264.27V108.909H4268.23V111.312H4268.37C4268.66 110.511 4269.16 109.884 4269.86 109.429C4270.56 108.969 4271.39 108.739 4272.35 108.739C4273.28 108.739 4274.07 108.946 4274.75 109.361C4275.43 109.77 4275.96 110.344 4276.34 111.082C4276.72 111.815 4276.9 112.673 4276.9 113.656V122H4272.73V114.474C4272.74 113.747 4272.55 113.179 4272.18 112.77C4271.81 112.361 4271.29 112.156 4270.63 112.156C4270.2 112.156 4269.81 112.253 4269.47 112.446C4269.14 112.634 4268.89 112.903 4268.71 113.256C4268.53 113.608 4268.44 114.034 4268.43 114.534Z" fill="#0A0A0A"/>
<rect width="4" height="60" transform="translate(4378.94)" fill="#0A0A0A"/>
<rect width="4" height="60" transform="translate(4525.4)" fill="#0A0A0A"/>
<rect width="4" height="60" transform="translate(4671.85)" fill="#0A0A0A"/>
<rect width="4" height="60" transform="translate(4818.31)" fill="#0A0A0A"/>
<rect width="6" height="90" transform="translate(4963.77)" fill="#0A0A0A"/>
<path d="M4934.1 122.239C4932.77 122.239 4931.59 122.011 4930.56 121.557C4929.54 121.097 4928.73 120.463 4928.14 119.656C4927.55 118.849 4927.25 117.92 4927.24 116.869H4931.48C4931.5 117.25 4931.62 117.588 4931.85 117.884C4932.08 118.173 4932.38 118.401 4932.78 118.565C4933.17 118.73 4933.62 118.812 4934.12 118.812C4934.62 118.812 4935.06 118.724 4935.44 118.548C4935.82 118.366 4936.12 118.119 4936.34 117.807C4936.56 117.489 4936.66 117.125 4936.65 116.716C4936.66 116.307 4936.54 115.943 4936.31 115.625C4936.07 115.307 4935.73 115.06 4935.29 114.884C4934.86 114.707 4934.35 114.619 4933.76 114.619H4932.06V111.619H4933.76C4934.27 111.619 4934.73 111.534 4935.12 111.364C4935.52 111.193 4935.83 110.955 4936.05 110.648C4936.27 110.335 4936.38 109.977 4936.37 109.574C4936.38 109.182 4936.29 108.838 4936.09 108.543C4935.9 108.241 4935.64 108.009 4935.3 107.844C4934.96 107.679 4934.58 107.597 4934.13 107.597C4933.67 107.597 4933.24 107.679 4932.86 107.844C4932.49 108.009 4932.19 108.241 4931.97 108.543C4931.75 108.844 4931.63 109.193 4931.62 109.591H4927.59C4927.6 108.551 4927.89 107.636 4928.46 106.847C4929.02 106.051 4929.8 105.429 4930.77 104.98C4931.76 104.531 4932.88 104.307 4934.13 104.307C4935.38 104.307 4936.48 104.526 4937.43 104.963C4938.38 105.401 4939.12 105.997 4939.65 106.753C4940.17 107.503 4940.44 108.352 4940.44 109.301C4940.44 110.284 4940.12 111.094 4939.48 111.73C4938.83 112.366 4938.01 112.759 4937 112.906V113.043C4938.35 113.202 4939.37 113.639 4940.06 114.355C4940.75 115.071 4941.09 115.966 4941.09 117.04C4941.09 118.051 4940.79 118.949 4940.19 119.733C4939.6 120.511 4938.78 121.125 4937.72 121.574C4936.67 122.017 4935.46 122.239 4934.1 122.239ZM4950.15 122.239C4948.88 122.239 4947.75 122.009 4946.76 121.548C4945.77 121.088 4944.99 120.455 4944.41 119.648C4943.84 118.841 4943.55 117.915 4943.53 116.869H4947.62C4947.65 117.511 4947.91 118.028 4948.4 118.42C4948.89 118.807 4949.47 119 4950.15 119C4950.68 119 4951.15 118.884 4951.55 118.651C4951.96 118.418 4952.28 118.091 4952.52 117.67C4952.75 117.244 4952.86 116.756 4952.86 116.205C4952.86 115.642 4952.75 115.151 4952.51 114.73C4952.28 114.31 4951.95 113.983 4951.54 113.75C4951.13 113.511 4950.66 113.392 4950.12 113.392C4949.62 113.386 4949.14 113.497 4948.68 113.724C4948.23 113.952 4947.89 114.261 4947.66 114.653L4943.94 113.955L4944.69 104.545H4955.89V107.946H4948.16L4947.76 112.062H4947.86C4948.15 111.58 4948.62 111.182 4949.26 110.869C4949.91 110.551 4950.65 110.392 4951.47 110.392C4952.51 110.392 4953.45 110.636 4954.26 111.125C4955.09 111.608 4955.74 112.278 4956.21 113.136C4956.69 113.994 4956.92 114.977 4956.92 116.085C4956.92 117.284 4956.64 118.347 4956.07 119.273C4955.51 120.199 4954.72 120.926 4953.7 121.455C4952.69 121.977 4951.51 122.239 4950.15 122.239ZM4964.43 122V108.909H4968.39V111.312H4968.54C4968.81 110.517 4969.27 109.889 4969.92 109.429C4970.57 108.969 4971.34 108.739 4972.24 108.739C4973.15 108.739 4973.92 108.972 4974.57 109.438C4975.22 109.903 4975.63 110.528 4975.81 111.312H4975.94C4976.19 110.534 4976.67 109.912 4977.38 109.446C4978.09 108.974 4978.92 108.739 4979.89 108.739C4981.13 108.739 4982.13 109.136 4982.91 109.932C4983.68 110.722 4984.07 111.807 4984.07 113.188V122H4979.9V114.142C4979.9 113.489 4979.73 112.991 4979.4 112.651C4979.06 112.304 4978.63 112.131 4978.09 112.131C4977.52 112.131 4977.07 112.318 4976.74 112.693C4976.41 113.062 4976.25 113.56 4976.25 114.185V122H4972.25V114.099C4972.25 113.491 4972.08 113.011 4971.75 112.659C4971.42 112.307 4970.99 112.131 4970.45 112.131C4970.08 112.131 4969.76 112.219 4969.48 112.395C4969.21 112.565 4968.99 112.81 4968.83 113.128C4968.67 113.446 4968.6 113.821 4968.6 114.253V122H4964.43ZM4986.65 122V108.909H4990.82V122H4986.65ZM4988.74 107.384C4988.15 107.384 4987.65 107.19 4987.23 106.804C4986.81 106.412 4986.6 105.94 4986.6 105.389C4986.6 104.844 4986.81 104.378 4987.23 103.991C4987.65 103.599 4988.15 103.403 4988.74 103.403C4989.33 103.403 4989.83 103.599 4990.25 103.991C4990.67 104.378 4990.88 104.844 4990.88 105.389C4990.88 105.94 4990.67 106.412 4990.25 106.804C4989.83 107.19 4989.33 107.384 4988.74 107.384ZM4997.64 114.534V122H4993.47V108.909H4997.43V111.312H4997.58C4997.87 110.511 4998.36 109.884 4999.06 109.429C4999.76 108.969 5000.59 108.739 5001.56 108.739C5002.48 108.739 5003.28 108.946 5003.95 109.361C5004.63 109.77 5005.16 110.344 5005.54 111.082C5005.92 111.815 5006.11 112.673 5006.1 113.656V122H5001.93V114.474C5001.94 113.747 5001.75 113.179 5001.38 112.77C5001.01 112.361 5000.5 112.156 4999.84 112.156C4999.4 112.156 4999.01 112.253 4998.68 112.446C4998.35 112.634 4998.09 112.903 4997.91 113.256C4997.73 113.608 4997.64 114.034 4997.64 114.534Z" fill="#0A0A0A"/>
<rect width="4" height="60" transform="translate(5108.77)" fill="#0A0A0A"/>
<rect width="4" height="60" transform="translate(5255.22)" fill="#0A0A0A"/>
<rect width="4" height="60" transform="translate(5401.68)" fill="#0A0A0A"/>
<rect width="4" height="60" transform="translate(5548.13)" fill="#0A0A0A"/>
<rect width="6" height="90" transform="translate(5693.59)" fill="#0A0A0A"/>
<path d="M5656.18 119.102V115.812L5663.33 104.545H5666.25V109.011H5664.56L5660.37 115.642V115.778H5670.73V119.102H5656.18ZM5664.61 122V118.097L5664.69 116.656V104.545H5668.64V122H5664.61ZM5680.16 122.426C5678.63 122.426 5677.32 122.065 5676.22 121.344C5675.12 120.616 5674.27 119.574 5673.67 118.216C5673.08 116.852 5672.78 115.213 5672.79 113.298C5672.79 111.384 5673.09 109.759 5673.68 108.423C5674.28 107.082 5675.12 106.062 5676.22 105.364C5677.32 104.659 5678.63 104.307 5680.16 104.307C5681.68 104.307 5682.99 104.659 5684.1 105.364C5685.2 106.062 5686.06 107.082 5686.65 108.423C5687.25 109.764 5687.54 111.389 5687.54 113.298C5687.54 115.219 5687.24 116.861 5686.64 118.224C5686.05 119.588 5685.2 120.631 5684.1 121.352C5683 122.068 5681.69 122.426 5680.16 122.426ZM5680.16 118.974C5681.07 118.974 5681.8 118.511 5682.36 117.585C5682.93 116.653 5683.21 115.224 5683.2 113.298C5683.2 112.037 5683.07 110.997 5682.82 110.179C5682.56 109.355 5682.21 108.741 5681.75 108.338C5681.3 107.935 5680.77 107.733 5680.16 107.733C5679.25 107.733 5678.52 108.19 5677.97 109.105C5677.41 110.014 5677.13 111.412 5677.12 113.298C5677.12 114.577 5677.24 115.636 5677.49 116.477C5677.75 117.318 5678.1 117.946 5678.56 118.361C5679.02 118.77 5679.56 118.974 5680.16 118.974ZM5695.14 122V108.909H5699.11V111.312H5699.25C5699.53 110.517 5699.99 109.889 5700.63 109.429C5701.28 108.969 5702.05 108.739 5702.95 108.739C5703.86 108.739 5704.64 108.972 5705.29 109.438C5705.93 109.903 5706.35 110.528 5706.52 111.312H5706.66C5706.9 110.534 5707.38 109.912 5708.09 109.446C5708.8 108.974 5709.64 108.739 5710.6 108.739C5711.84 108.739 5712.85 109.136 5713.62 109.932C5714.39 110.722 5714.78 111.807 5714.78 113.188V122H5710.61V114.142C5710.61 113.489 5710.45 112.991 5710.11 112.651C5709.78 112.304 5709.34 112.131 5708.81 112.131C5708.23 112.131 5707.78 112.318 5707.45 112.693C5707.13 113.062 5706.97 113.56 5706.97 114.185V122H5702.96V114.099C5702.96 113.491 5702.8 113.011 5702.47 112.659C5702.14 112.307 5701.7 112.131 5701.16 112.131C5700.8 112.131 5700.48 112.219 5700.2 112.395C5699.92 112.565 5699.7 112.81 5699.54 113.128C5699.39 113.446 5699.31 113.821 5699.31 114.253V122H5695.14ZM5717.36 122V108.909H5721.53V122H5717.36ZM5719.45 107.384C5718.87 107.384 5718.36 107.19 5717.94 106.804C5717.52 106.412 5717.31 105.94 5717.31 105.389C5717.31 104.844 5717.52 104.378 5717.94 103.991C5718.36 103.599 5718.87 103.403 5719.45 103.403C5720.04 103.403 5720.55 103.599 5720.96 103.991C5721.38 104.378 5721.59 104.844 5721.59 105.389C5721.59 105.94 5721.38 106.412 5720.96 106.804C5720.55 107.19 5720.04 107.384 5719.45 107.384ZM5728.35 114.534V122H5724.18V108.909H5728.15V111.312H5728.29C5728.58 110.511 5729.08 109.884 5729.77 109.429C5730.47 108.969 5731.31 108.739 5732.27 108.739C5733.19 108.739 5733.99 108.946 5734.67 109.361C5735.35 109.77 5735.88 110.344 5736.25 111.082C5736.63 111.815 5736.82 112.673 5736.81 113.656V122H5732.65V114.474C5732.65 113.747 5732.47 113.179 5732.09 112.77C5731.72 112.361 5731.21 112.156 5730.55 112.156C5730.11 112.156 5729.73 112.253 5729.39 112.446C5729.06 112.634 5728.81 112.903 5728.62 113.256C5728.45 113.608 5728.36 114.034 5728.35 114.534Z" fill="#0A0A0A"/>
<rect width="4" height="60" transform="translate(5838.59)" fill="#0A0A0A"/>
<rect width="4" height="60" transform="translate(5985.04)" fill="#0A0A0A"/>
<rect width="4" height="60" transform="translate(6131.5)" fill="#0A0A0A"/>
<rect width="4" height="60" transform="translate(6277.96)" fill="#0A0A0A"/>
<rect width="6" height="90" transform="translate(6423.41)" fill="#0A0A0A"/>
<path d="M6386.62 119.102V115.812L6393.77 104.545H6396.7V109.011H6395L6390.82 115.642V115.778H6401.17V119.102H6386.62ZM6395.05 122V118.097L6395.14 116.656V104.545H6399.08V122H6395.05ZM6410.07 122.239C6408.79 122.239 6407.66 122.009 6406.67 121.548C6405.68 121.088 6404.9 120.455 6404.33 119.648C6403.76 118.841 6403.47 117.915 6403.44 116.869H6407.53C6407.57 117.511 6407.83 118.028 6408.32 118.42C6408.81 118.807 6409.39 119 6410.07 119C6410.59 119 6411.06 118.884 6411.47 118.651C6411.88 118.418 6412.2 118.091 6412.43 117.67C6412.67 117.244 6412.78 116.756 6412.78 116.205C6412.78 115.642 6412.66 115.151 6412.43 114.73C6412.19 114.31 6411.87 113.983 6411.45 113.75C6411.05 113.511 6410.57 113.392 6410.04 113.392C6409.53 113.386 6409.05 113.497 6408.6 113.724C6408.15 113.952 6407.81 114.261 6407.58 114.653L6403.85 113.955L6404.61 104.545H6415.81V107.946H6408.08L6407.68 112.062H6407.78C6408.07 111.58 6408.54 111.182 6409.18 110.869C6409.83 110.551 6410.56 110.392 6411.39 110.392C6412.43 110.392 6413.36 110.636 6414.18 111.125C6415.01 111.608 6415.65 112.278 6416.13 113.136C6416.6 113.994 6416.84 114.977 6416.84 116.085C6416.84 117.284 6416.56 118.347 6415.99 119.273C6415.43 120.199 6414.64 120.926 6413.62 121.455C6412.61 121.977 6411.42 122.239 6410.07 122.239ZM6424.35 122V108.909H6428.31V111.312H6428.46C6428.73 110.517 6429.19 109.889 6429.84 109.429C6430.48 108.969 6431.26 108.739 6432.15 108.739C6433.06 108.739 6433.84 108.972 6434.49 109.438C6435.14 109.903 6435.55 110.528 6435.73 111.312H6435.86C6436.11 110.534 6436.58 109.912 6437.29 109.446C6438 108.974 6438.84 108.739 6439.81 108.739C6441.05 108.739 6442.05 109.136 6442.82 109.932C6443.6 110.722 6443.98 111.807 6443.98 113.188V122H6439.82V114.142C6439.82 113.489 6439.65 112.991 6439.31 112.651C6438.98 112.304 6438.54 112.131 6438.01 112.131C6437.44 112.131 6436.98 112.318 6436.65 112.693C6436.33 113.062 6436.17 113.56 6436.17 114.185V122H6432.16V114.099C6432.16 113.491 6432 113.011 6431.67 112.659C6431.34 112.307 6430.9 112.131 6430.36 112.131C6430 112.131 6429.68 112.219 6429.4 112.395C6429.12 112.565 6428.9 112.81 6428.75 113.128C6428.59 113.446 6428.52 113.821 6428.52 114.253V122H6424.35ZM6446.57 122V108.909H6450.73V122H6446.57ZM6448.65 107.384C6448.07 107.384 6447.57 107.19 6447.15 106.804C6446.73 106.412 6446.52 105.94 6446.52 105.389C6446.52 104.844 6446.73 104.378 6447.15 103.991C6447.57 103.599 6448.07 103.403 6448.65 103.403C6449.25 103.403 6449.75 103.599 6450.16 103.991C6450.58 104.378 6450.79 104.844 6450.79 105.389C6450.79 105.94 6450.58 106.412 6450.16 106.804C6449.75 107.19 6449.25 107.384 6448.65 107.384ZM6457.55 114.534V122H6453.39V108.909H6457.35V111.312H6457.49C6457.78 110.511 6458.28 109.884 6458.98 109.429C6459.68 108.969 6460.51 108.739 6461.47 108.739C6462.39 108.739 6463.19 108.946 6463.87 109.361C6464.55 109.77 6465.08 110.344 6465.45 111.082C6465.84 111.815 6466.02 112.673 6466.02 113.656V122H6461.85V114.474C6461.86 113.747 6461.67 113.179 6461.3 112.77C6460.93 112.361 6460.41 112.156 6459.75 112.156C6459.32 112.156 6458.93 112.253 6458.59 112.446C6458.26 112.634 6458.01 112.903 6457.83 113.256C6457.65 113.608 6457.56 114.034 6457.55 114.534Z" fill="#0A0A0A"/>
<rect width="4" height="60" transform="translate(6568.41)" fill="#0A0A0A"/>
<rect width="4" height="60" transform="translate(6714.87)" fill="#0A0A0A"/>
<rect width="4" height="60" transform="translate(6861.33)" fill="#0A0A0A"/>
<rect width="4" height="60" transform="translate(7007.78)" fill="#0A0A0A"/>
<rect width="6" height="90" transform="translate(7153.24)" fill="#0A0A0A"/>
<path d="M7123.11 122.239C7121.83 122.239 7120.7 122.009 7119.72 121.548C7118.73 121.088 7117.95 120.455 7117.37 119.648C7116.8 118.841 7116.51 117.915 7116.49 116.869H7120.58C7120.61 117.511 7120.87 118.028 7121.36 118.42C7121.85 118.807 7122.43 119 7123.11 119C7123.64 119 7124.1 118.884 7124.51 118.651C7124.92 118.418 7125.24 118.091 7125.48 117.67C7125.71 117.244 7125.82 116.756 7125.82 116.205C7125.82 115.642 7125.71 115.151 7125.47 114.73C7125.24 114.31 7124.91 113.983 7124.5 113.75C7124.09 113.511 7123.62 113.392 7123.08 113.392C7122.58 113.386 7122.1 113.497 7121.64 113.724C7121.19 113.952 7120.85 114.261 7120.62 114.653L7116.89 113.955L7117.65 104.545H7128.85V107.946H7121.12L7120.72 112.062H7120.82C7121.11 111.58 7121.58 111.182 7122.22 110.869C7122.87 110.551 7123.6 110.392 7124.43 110.392C7125.47 110.392 7126.41 110.636 7127.22 111.125C7128.05 111.608 7128.7 112.278 7129.17 113.136C7129.64 113.994 7129.88 114.977 7129.88 116.085C7129.88 117.284 7129.6 118.347 7129.03 119.273C7128.47 120.199 7127.68 120.926 7126.66 121.455C7125.65 121.977 7124.47 122.239 7123.11 122.239ZM7139.42 122.426C7137.9 122.426 7136.58 122.065 7135.48 121.344C7134.38 120.616 7133.53 119.574 7132.93 118.216C7132.34 116.852 7132.04 115.213 7132.05 113.298C7132.05 111.384 7132.35 109.759 7132.94 108.423C7133.54 107.082 7134.38 106.062 7135.48 105.364C7136.58 104.659 7137.9 104.307 7139.42 104.307C7140.94 104.307 7142.25 104.659 7143.36 105.364C7144.46 106.062 7145.32 107.082 7145.91 108.423C7146.51 109.764 7146.8 111.389 7146.8 113.298C7146.8 115.219 7146.5 116.861 7145.9 118.224C7145.31 119.588 7144.46 120.631 7143.36 121.352C7142.26 122.068 7140.95 122.426 7139.42 122.426ZM7139.42 118.974C7140.33 118.974 7141.06 118.511 7141.63 117.585C7142.19 116.653 7142.47 115.224 7142.46 113.298C7142.46 112.037 7142.33 110.997 7142.08 110.179C7141.82 109.355 7141.47 108.741 7141.01 108.338C7140.56 107.935 7140.03 107.733 7139.42 107.733C7138.51 107.733 7137.78 108.19 7137.23 109.105C7136.67 110.014 7136.39 111.412 7136.38 113.298C7136.38 114.577 7136.5 115.636 7136.75 116.477C7137.01 117.318 7137.36 117.946 7137.82 118.361C7138.28 118.77 7138.82 118.974 7139.42 118.974ZM7154.41 122V108.909H7158.37V111.312H7158.51C7158.79 110.517 7159.25 109.889 7159.89 109.429C7160.54 108.969 7161.31 108.739 7162.21 108.739C7163.12 108.739 7163.9 108.972 7164.55 109.438C7165.19 109.903 7165.61 110.528 7165.78 111.312H7165.92C7166.16 110.534 7166.64 109.912 7167.35 109.446C7168.06 108.974 7168.9 108.739 7169.87 108.739C7171.1 108.739 7172.11 109.136 7172.88 109.932C7173.66 110.722 7174.04 111.807 7174.04 113.188V122H7169.87V114.142C7169.87 113.489 7169.71 112.991 7169.37 112.651C7169.04 112.304 7168.6 112.131 7168.07 112.131C7167.49 112.131 7167.04 112.318 7166.71 112.693C7166.39 113.062 7166.23 113.56 7166.23 114.185V122H7162.22V114.099C7162.22 113.491 7162.06 113.011 7161.73 112.659C7161.4 112.307 7160.96 112.131 7160.42 112.131C7160.06 112.131 7159.74 112.219 7159.46 112.395C7159.18 112.565 7158.96 112.81 7158.8 113.128C7158.65 113.446 7158.57 113.821 7158.57 114.253V122H7154.41ZM7176.62 122V108.909H7180.79V122H7176.62ZM7178.71 107.384C7178.13 107.384 7177.62 107.19 7177.2 106.804C7176.78 106.412 7176.57 105.94 7176.57 105.389C7176.57 104.844 7176.78 104.378 7177.2 103.991C7177.62 103.599 7178.13 103.403 7178.71 103.403C7179.3 103.403 7179.81 103.599 7180.22 103.991C7180.64 104.378 7180.85 104.844 7180.85 105.389C7180.85 105.94 7180.64 106.412 7180.22 106.804C7179.81 107.19 7179.3 107.384 7178.71 107.384ZM7187.61 114.534V122H7183.44V108.909H7187.41V111.312H7187.55C7187.84 110.511 7188.34 109.884 7189.03 109.429C7189.73 108.969 7190.57 108.739 7191.53 108.739C7192.45 108.739 7193.25 108.946 7193.93 109.361C7194.61 109.77 7195.14 110.344 7195.51 111.082C7195.89 111.815 7196.08 112.673 7196.07 113.656V122H7191.91V114.474C7191.91 113.747 7191.73 113.179 7191.35 112.77C7190.98 112.361 7190.47 112.156 7189.81 112.156C7189.37 112.156 7188.99 112.253 7188.65 112.446C7188.32 112.634 7188.07 112.903 7187.88 113.256C7187.71 113.608 7187.62 114.034 7187.61 114.534Z" fill="#0A0A0A"/>
<rect width="4" height="60" transform="translate(7298.24)" fill="#0A0A0A"/>
<rect width="4" height="60" transform="translate(7444.69)" fill="#0A0A0A"/>
<rect width="4" height="60" transform="translate(7591.15)" fill="#0A0A0A"/>
<rect width="4" height="60" transform="translate(7737.6)" fill="#0A0A0A"/>
<rect width="6" height="90" transform="translate(7883.06)" fill="#0A0A0A"/>
<path d="M7853.55 122.239C7852.28 122.239 7851.15 122.009 7850.16 121.548C7849.17 121.088 7848.39 120.455 7847.82 119.648C7847.25 118.841 7846.95 117.915 7846.93 116.869H7851.02C7851.05 117.511 7851.32 118.028 7851.8 118.42C7852.29 118.807 7852.88 119 7853.55 119C7854.08 119 7854.55 118.884 7854.96 118.651C7855.37 118.418 7855.69 118.091 7855.92 117.67C7856.15 117.244 7856.27 116.756 7856.26 116.205C7856.27 115.642 7856.15 115.151 7855.91 114.73C7855.68 114.31 7855.36 113.983 7854.94 113.75C7854.53 113.511 7854.06 113.392 7853.53 113.392C7853.02 113.386 7852.54 113.497 7852.09 113.724C7851.64 113.952 7851.3 114.261 7851.06 114.653L7847.34 113.955L7848.1 104.545H7859.3V107.946H7851.57L7851.17 112.062H7851.27C7851.56 111.58 7852.02 111.182 7852.67 110.869C7853.31 110.551 7854.05 110.392 7854.87 110.392C7855.92 110.392 7856.85 110.636 7857.67 111.125C7858.49 111.608 7859.14 112.278 7859.61 113.136C7860.09 113.994 7860.33 114.977 7860.33 116.085C7860.33 117.284 7860.04 118.347 7859.48 119.273C7858.91 120.199 7858.12 120.926 7857.11 121.455C7856.09 121.977 7854.91 122.239 7853.55 122.239ZM7869.33 122.239C7868.05 122.239 7866.92 122.009 7865.93 121.548C7864.94 121.088 7864.16 120.455 7863.59 119.648C7863.02 118.841 7862.73 117.915 7862.7 116.869H7866.79C7866.83 117.511 7867.09 118.028 7867.58 118.42C7868.07 118.807 7868.65 119 7869.33 119C7869.85 119 7870.32 118.884 7870.73 118.651C7871.14 118.418 7871.46 118.091 7871.69 117.67C7871.93 117.244 7872.04 116.756 7872.04 116.205C7872.04 115.642 7871.92 115.151 7871.69 114.73C7871.45 114.31 7871.13 113.983 7870.71 113.75C7870.31 113.511 7869.83 113.392 7869.3 113.392C7868.79 113.386 7868.31 113.497 7867.86 113.724C7867.41 113.952 7867.07 114.261 7866.84 114.653L7863.11 113.955L7863.87 104.545H7875.07V107.946H7867.34L7866.94 112.062H7867.04C7867.33 111.58 7867.8 111.182 7868.44 110.869C7869.09 110.551 7869.82 110.392 7870.65 110.392C7871.69 110.392 7872.62 110.636 7873.44 111.125C7874.27 111.608 7874.91 112.278 7875.38 113.136C7875.86 113.994 7876.1 114.977 7876.1 116.085C7876.1 117.284 7875.82 118.347 7875.25 119.273C7874.69 120.199 7873.9 120.926 7872.88 121.455C7871.87 121.977 7870.68 122.239 7869.33 122.239ZM7883.61 122V108.909H7887.57V111.312H7887.72C7887.99 110.517 7888.45 109.889 7889.1 109.429C7889.74 108.969 7890.52 108.739 7891.41 108.739C7892.32 108.739 7893.1 108.972 7893.75 109.438C7894.4 109.903 7894.81 110.528 7894.98 111.312H7895.12C7895.37 110.534 7895.84 109.912 7896.55 109.446C7897.26 108.974 7898.1 108.739 7899.07 108.739C7900.31 108.739 7901.31 109.136 7902.08 109.932C7902.86 110.722 7903.24 111.807 7903.24 113.188V122H7899.08V114.142C7899.08 113.489 7898.91 112.991 7898.57 112.651C7898.24 112.304 7897.8 112.131 7897.27 112.131C7896.7 112.131 7896.24 112.318 7895.91 112.693C7895.59 113.062 7895.43 113.56 7895.43 114.185V122H7891.42V114.099C7891.42 113.491 7891.26 113.011 7890.93 112.659C7890.6 112.307 7890.16 112.131 7889.62 112.131C7889.26 112.131 7888.94 112.219 7888.66 112.395C7888.38 112.565 7888.16 112.81 7888 113.128C7887.85 113.446 7887.77 113.821 7887.77 114.253V122H7883.61ZM7905.83 122V108.909H7909.99V122H7905.83ZM7907.91 107.384C7907.33 107.384 7906.83 107.19 7906.41 106.804C7905.98 106.412 7905.77 105.94 7905.77 105.389C7905.77 104.844 7905.98 104.378 7906.41 103.991C7906.83 103.599 7907.33 103.403 7907.91 103.403C7908.5 103.403 7909.01 103.599 7909.42 103.991C7909.84 104.378 7910.05 104.844 7910.05 105.389C7910.05 105.94 7909.84 106.412 7909.42 106.804C7909.01 107.19 7908.5 107.384 7907.91 107.384ZM7916.81 114.534V122H7912.65V108.909H7916.61V111.312H7916.75C7917.04 110.511 7917.54 109.884 7918.24 109.429C7918.94 108.969 7919.77 108.739 7920.73 108.739C7921.65 108.739 7922.45 108.946 7923.13 109.361C7923.81 109.77 7924.34 110.344 7924.71 111.082C7925.1 111.815 7925.28 112.673 7925.28 113.656V122H7921.11V114.474C7921.11 113.747 7920.93 113.179 7920.56 112.77C7920.19 112.361 7919.67 112.156 7919.01 112.156C7918.58 112.156 7918.19 112.253 7917.85 112.446C7917.52 112.634 7917.27 112.903 7917.09 113.256C7916.91 113.608 7916.82 114.034 7916.81 114.534Z" fill="#0A0A0A"/>
<rect width="4" height="60" transform="translate(8028.06)" fill="#0A0A0A"/>
<rect width="4" height="60" transform="translate(8174.52)" fill="#0A0A0A"/>
<rect width="4" height="60" transform="translate(8320.97)" fill="#0A0A0A"/>
<rect width="4" height="60" transform="translate(8467.43)" fill="#0A0A0A"/>
<rect width="6" height="90" transform="translate(8612.88)" fill="#0A0A0A"/>
<path d="M8582.88 122.239C8581.93 122.239 8581.01 122.085 8580.14 121.778C8579.26 121.466 8578.48 120.972 8577.8 120.295C8577.12 119.614 8576.58 118.722 8576.19 117.619C8575.8 116.511 8575.61 115.162 8575.61 113.571C8575.62 112.134 8575.79 110.844 8576.14 109.702C8576.49 108.554 8576.98 107.58 8577.62 106.778C8578.27 105.977 8579.04 105.366 8579.94 104.946C8580.85 104.52 8581.85 104.307 8582.97 104.307C8584.19 104.307 8585.27 104.545 8586.2 105.023C8587.14 105.494 8587.89 106.131 8588.45 106.932C8589.01 107.727 8589.34 108.614 8589.45 109.591H8585.29C8585.17 109.04 8584.89 108.622 8584.47 108.338C8584.05 108.048 8583.55 107.903 8582.97 107.903C8581.9 107.903 8581.1 108.366 8580.57 109.293C8580.05 110.219 8579.78 111.457 8579.77 113.009H8579.88C8580.12 112.486 8580.47 112.037 8580.91 111.662C8581.36 111.287 8581.88 111 8582.46 110.801C8583.04 110.597 8583.66 110.494 8584.31 110.494C8585.36 110.494 8586.28 110.736 8587.08 111.219C8587.89 111.702 8588.51 112.364 8588.97 113.205C8589.42 114.04 8589.65 114.997 8589.64 116.077C8589.65 117.293 8589.36 118.366 8588.79 119.298C8588.22 120.224 8587.42 120.946 8586.4 121.463C8585.39 121.98 8584.22 122.239 8582.88 122.239ZM8582.86 119C8583.37 119 8583.84 118.878 8584.25 118.634C8584.66 118.389 8584.98 118.057 8585.21 117.636C8585.44 117.216 8585.56 116.741 8585.55 116.213C8585.56 115.679 8585.44 115.205 8585.21 114.79C8584.98 114.375 8584.66 114.045 8584.25 113.801C8583.85 113.557 8583.39 113.435 8582.87 113.435C8582.48 113.435 8582.13 113.506 8581.8 113.648C8581.47 113.79 8581.18 113.989 8580.94 114.244C8580.7 114.494 8580.51 114.79 8580.38 115.131C8580.24 115.466 8580.17 115.83 8580.16 116.222C8580.17 116.739 8580.29 117.207 8580.52 117.628C8580.75 118.048 8581.07 118.384 8581.48 118.634C8581.88 118.878 8582.34 119 8582.86 119ZM8599.25 122.426C8597.73 122.426 8596.42 122.065 8595.32 121.344C8594.21 120.616 8593.36 119.574 8592.77 118.216C8592.17 116.852 8591.87 115.213 8591.88 113.298C8591.89 111.384 8592.18 109.759 8592.78 108.423C8593.37 107.082 8594.22 106.062 8595.32 105.364C8596.42 104.659 8597.73 104.307 8599.25 104.307C8600.78 104.307 8602.09 104.659 8603.19 105.364C8604.3 106.062 8605.15 107.082 8605.75 108.423C8606.34 109.764 8606.64 111.389 8606.63 113.298C8606.63 115.219 8606.34 116.861 8605.74 118.224C8605.14 119.588 8604.29 120.631 8603.19 121.352C8602.09 122.068 8600.78 122.426 8599.25 122.426ZM8599.25 118.974C8600.16 118.974 8600.9 118.511 8601.46 117.585C8602.02 116.653 8602.3 115.224 8602.3 113.298C8602.3 112.037 8602.17 110.997 8601.91 110.179C8601.66 109.355 8601.3 108.741 8600.85 108.338C8600.39 107.935 8599.86 107.733 8599.25 107.733C8598.35 107.733 8597.62 108.19 8597.06 109.105C8596.51 110.014 8596.22 111.412 8596.22 113.298C8596.21 114.577 8596.34 115.636 8596.59 116.477C8596.84 117.318 8597.2 117.946 8597.66 118.361C8598.12 118.77 8598.65 118.974 8599.25 118.974ZM8614.24 122V108.909H8618.2V111.312H8618.35C8618.62 110.517 8619.08 109.889 8619.73 109.429C8620.38 108.969 8621.15 108.739 8622.05 108.739C8622.96 108.739 8623.73 108.972 8624.38 109.438C8625.03 109.903 8625.44 110.528 8625.62 111.312H8625.75C8626 110.534 8626.48 109.912 8627.19 109.446C8627.9 108.974 8628.73 108.739 8629.7 108.739C8630.94 108.739 8631.94 109.136 8632.72 109.932C8633.49 110.722 8633.88 111.807 8633.88 113.188V122H8629.71V114.142C8629.71 113.489 8629.54 112.991 8629.21 112.651C8628.87 112.304 8628.44 112.131 8627.9 112.131C8627.33 112.131 8626.88 112.318 8626.55 112.693C8626.22 113.062 8626.06 113.56 8626.06 114.185V122H8622.06V114.099C8622.06 113.491 8621.89 113.011 8621.56 112.659C8621.23 112.307 8620.8 112.131 8620.26 112.131C8619.89 112.131 8619.57 112.219 8619.29 112.395C8619.02 112.565 8618.8 112.81 8618.64 113.128C8618.48 113.446 8618.41 113.821 8618.41 114.253V122H8614.24ZM8636.46 122V108.909H8640.63V122H8636.46ZM8638.55 107.384C8637.96 107.384 8637.46 107.19 8637.04 106.804C8636.62 106.412 8636.41 105.94 8636.41 105.389C8636.41 104.844 8636.62 104.378 8637.04 103.991C8637.46 103.599 8637.96 103.403 8638.55 103.403C8639.14 103.403 8639.64 103.599 8640.06 103.991C8640.48 104.378 8640.69 104.844 8640.69 105.389C8640.69 105.94 8640.48 106.412 8640.06 106.804C8639.64 107.19 8639.14 107.384 8638.55 107.384ZM8647.45 114.534V122H8643.28V108.909H8647.24V111.312H8647.39C8647.68 110.511 8648.17 109.884 8648.87 109.429C8649.57 108.969 8650.4 108.739 8651.37 108.739C8652.29 108.739 8653.09 108.946 8653.76 109.361C8654.44 109.77 8654.97 110.344 8655.35 111.082C8655.73 111.815 8655.92 112.673 8655.91 113.656V122H8651.74V114.474C8651.75 113.747 8651.56 113.179 8651.19 112.77C8650.82 112.361 8650.3 112.156 8649.65 112.156C8649.21 112.156 8648.82 112.253 8648.49 112.446C8648.16 112.634 8647.9 112.903 8647.72 113.256C8647.54 113.608 8647.45 114.034 8647.45 114.534Z" fill="#0A0A0A"/>
<rect width="4" height="60" transform="translate(8757.88)" fill="#0A0A0A"/>
<rect width="4" height="60" transform="translate(8904.34)" fill="#0A0A0A"/>
<rect width="4" height="60" transform="translate(9050.8)" fill="#0A0A0A"/>
<rect width="4" height="60" transform="translate(9197.25)" fill="#0A0A0A"/>
<rect width="6" height="90" transform="translate(9342.71)" fill="#0A0A0A"/>
<path d="M9307.48 122L9314.52 108.057V107.946H9306.29V104.545H9318.88V107.972L9311.82 122H9307.48ZM9328.04 122.426C9326.52 122.426 9325.21 122.065 9324.11 121.344C9323 120.616 9322.16 119.574 9321.56 118.216C9320.96 116.852 9320.67 115.213 9320.67 113.298C9320.68 111.384 9320.98 109.759 9321.57 108.423C9322.16 107.082 9323.01 106.062 9324.11 105.364C9325.21 104.659 9326.52 104.307 9328.04 104.307C9329.57 104.307 9330.88 104.659 9331.98 105.364C9333.09 106.062 9333.94 107.082 9334.54 108.423C9335.14 109.764 9335.43 111.389 9335.43 113.298C9335.43 115.219 9335.13 116.861 9334.53 118.224C9333.93 119.588 9333.08 120.631 9331.98 121.352C9330.89 122.068 9329.57 122.426 9328.04 122.426ZM9328.04 118.974C9328.95 118.974 9329.69 118.511 9330.25 117.585C9330.81 116.653 9331.09 115.224 9331.09 113.298C9331.09 112.037 9330.96 110.997 9330.7 110.179C9330.45 109.355 9330.09 108.741 9329.64 108.338C9329.18 107.935 9328.65 107.733 9328.04 107.733C9327.14 107.733 9326.41 108.19 9325.85 109.105C9325.3 110.014 9325.02 111.412 9325.01 113.298C9325 114.577 9325.13 115.636 9325.38 116.477C9325.63 117.318 9325.99 117.946 9326.45 118.361C9326.91 118.77 9327.44 118.974 9328.04 118.974ZM9343.03 122V108.909H9347V111.312H9347.14C9347.41 110.517 9347.87 109.889 9348.52 109.429C9349.17 108.969 9349.94 108.739 9350.84 108.739C9351.75 108.739 9352.53 108.972 9353.17 109.438C9353.82 109.903 9354.23 110.528 9354.41 111.312H9354.55C9354.79 110.534 9355.27 109.912 9355.98 109.446C9356.69 108.974 9357.53 108.739 9358.49 108.739C9359.73 108.739 9360.74 109.136 9361.51 109.932C9362.28 110.722 9362.67 111.807 9362.67 113.188V122H9358.5V114.142C9358.5 113.489 9358.33 112.991 9358 112.651C9357.66 112.304 9357.23 112.131 9356.69 112.131C9356.12 112.131 9355.67 112.318 9355.34 112.693C9355.01 113.062 9354.85 113.56 9354.85 114.185V122H9350.85V114.099C9350.85 113.491 9350.68 113.011 9350.35 112.659C9350.02 112.307 9349.59 112.131 9349.05 112.131C9348.69 112.131 9348.36 112.219 9348.09 112.395C9347.81 112.565 9347.59 112.81 9347.43 113.128C9347.28 113.446 9347.2 113.821 9347.2 114.253V122H9343.03ZM9365.25 122V108.909H9369.42V122H9365.25ZM9367.34 107.384C9366.75 107.384 9366.25 107.19 9365.83 106.804C9365.41 106.412 9365.2 105.94 9365.2 105.389C9365.2 104.844 9365.41 104.378 9365.83 103.991C9366.25 103.599 9366.75 103.403 9367.34 103.403C9367.93 103.403 9368.43 103.599 9368.85 103.991C9369.27 104.378 9369.48 104.844 9369.48 105.389C9369.48 105.94 9369.27 106.412 9368.85 106.804C9368.43 107.19 9367.93 107.384 9367.34 107.384ZM9376.24 114.534V122H9372.07V108.909H9376.03V111.312H9376.18C9376.47 110.511 9376.96 109.884 9377.66 109.429C9378.36 108.969 9379.19 108.739 9380.16 108.739C9381.08 108.739 9381.88 108.946 9382.55 109.361C9383.24 109.77 9383.76 110.344 9384.14 111.082C9384.52 111.815 9384.71 112.673 9384.7 113.656V122H9380.53V114.474C9380.54 113.747 9380.36 113.179 9379.98 112.77C9379.61 112.361 9379.1 112.156 9378.44 112.156C9378 112.156 9377.61 112.253 9377.28 112.446C9376.95 112.634 9376.69 112.903 9376.51 113.256C9376.34 113.608 9376.24 114.034 9376.24 114.534Z" fill="#0A0A0A"/>
<rect width="4" height="60" transform="translate(9487.71)" fill="#0A0A0A"/>
<rect width="4" height="60" transform="translate(9634.16)" fill="#0A0A0A"/>
<rect width="4" height="60" transform="translate(9780.62)" fill="#0A0A0A"/>
<rect width="4" height="60" transform="translate(9927.07)" fill="#0A0A0A"/>
<rect width="6" height="90" transform="translate(10072.5)" fill="#0A0A0A"/>
<path d="M10037.9 122L10044.9 108.057V107.946H10036.7V104.545H10049.3V107.972L10042.2 122H10037.9ZM10058 122.239C10056.7 122.239 10055.6 122.009 10054.6 121.548C10053.6 121.088 10052.9 120.455 10052.3 119.648C10051.7 118.841 10051.4 117.915 10051.4 116.869H10055.5C10055.5 117.511 10055.8 118.028 10056.3 118.42C10056.8 118.807 10057.3 119 10058 119C10058.6 119 10059 118.884 10059.4 118.651C10059.8 118.418 10060.2 118.091 10060.4 117.67C10060.6 117.244 10060.7 116.756 10060.7 116.205C10060.7 115.642 10060.6 115.151 10060.4 114.73C10060.2 114.31 10059.8 113.983 10059.4 113.75C10059 113.511 10058.5 113.392 10058 113.392C10057.5 113.386 10057 113.497 10056.6 113.724C10056.1 113.952 10055.8 114.261 10055.5 114.653L10051.8 113.955L10052.6 104.545H10063.8V107.946H10056L10055.6 112.062H10055.7C10056 111.58 10056.5 111.182 10057.1 110.869C10057.8 110.551 10058.5 110.392 10059.3 110.392C10060.4 110.392 10061.3 110.636 10062.1 111.125C10063 111.608 10063.6 112.278 10064.1 113.136C10064.6 113.994 10064.8 114.977 10064.8 116.085C10064.8 117.284 10064.5 118.347 10063.9 119.273C10063.4 120.199 10062.6 120.926 10061.6 121.455C10060.6 121.977 10059.4 122.239 10058 122.239ZM10072.3 122V108.909H10076.3V111.312H10076.4C10076.7 110.517 10077.1 109.889 10077.8 109.429C10078.4 108.969 10079.2 108.739 10080.1 108.739C10081 108.739 10081.8 108.972 10082.4 109.438C10083.1 109.903 10083.5 110.528 10083.7 111.312H10083.8C10084.1 110.534 10084.5 109.912 10085.3 109.446C10086 108.974 10086.8 108.739 10087.8 108.739C10089 108.739 10090 109.136 10090.8 109.932C10091.6 110.722 10091.9 111.807 10091.9 113.188V122H10087.8V114.142C10087.8 113.489 10087.6 112.991 10087.3 112.651C10086.9 112.304 10086.5 112.131 10086 112.131C10085.4 112.131 10084.9 112.318 10084.6 112.693C10084.3 113.062 10084.1 113.56 10084.1 114.185V122H10080.1V114.099C10080.1 113.491 10080 113.011 10079.6 112.659C10079.3 112.307 10078.9 112.131 10078.3 112.131C10078 112.131 10077.6 112.219 10077.4 112.395C10077.1 112.565 10076.9 112.81 10076.7 113.128C10076.5 113.446 10076.5 113.821 10076.5 114.253V122H10072.3ZM10094.5 122V108.909H10098.7V122H10094.5ZM10096.6 107.384C10096 107.384 10095.5 107.19 10095.1 106.804C10094.7 106.412 10094.5 105.94 10094.5 105.389C10094.5 104.844 10094.7 104.378 10095.1 103.991C10095.5 103.599 10096 103.403 10096.6 103.403C10097.2 103.403 10097.7 103.599 10098.1 103.991C10098.5 104.378 10098.8 104.844 10098.8 105.389C10098.8 105.94 10098.5 106.412 10098.1 106.804C10097.7 107.19 10097.2 107.384 10096.6 107.384ZM10105.5 114.534V122H10101.3V108.909H10105.3V111.312H10105.5C10105.7 110.511 10106.2 109.884 10106.9 109.429C10107.6 108.969 10108.5 108.739 10109.4 108.739C10110.4 108.739 10111.2 108.946 10111.8 109.361C10112.5 109.77 10113 110.344 10113.4 111.082C10113.8 111.815 10114 112.673 10114 113.656V122H10109.8V114.474C10109.8 113.747 10109.6 113.179 10109.3 112.77C10108.9 112.361 10108.4 112.156 10107.7 112.156C10107.3 112.156 10106.9 112.253 10106.6 112.446C10106.2 112.634 10106 112.903 10105.8 113.256C10105.6 113.608 10105.5 114.034 10105.5 114.534Z" fill="#0A0A0A"/>
<rect width="4" height="60" transform="translate(10217.5)" fill="#0A0A0A"/>
<rect width="4" height="60" transform="translate(10364)" fill="#0A0A0A"/>
<rect width="4" height="60" transform="translate(10510.4)" fill="#0A0A0A"/>
<rect width="4" height="60" transform="translate(10656.9)" fill="#0A0A0A"/>
<rect width="6" height="90" transform="translate(10802.4)" fill="#0A0A0A"/>
<path d="M10772.1 122.239C10770.8 122.239 10769.6 122.023 10768.5 121.591C10767.4 121.153 10766.6 120.562 10766 119.818C10765.4 119.068 10765.1 118.222 10765.1 117.278C10765.1 116.557 10765.3 115.895 10765.6 115.293C10766 114.69 10766.4 114.19 10767 113.793C10767.6 113.389 10768.3 113.131 10769 113.017V112.881C10768.1 112.705 10767.3 112.259 10766.6 111.543C10766 110.827 10765.7 109.989 10765.7 109.028C10765.7 108.119 10766 107.31 10766.6 106.599C10767.1 105.889 10767.9 105.33 10768.8 104.92C10769.8 104.511 10770.9 104.307 10772.1 104.307C10773.4 104.307 10774.5 104.511 10775.4 104.92C10776.4 105.33 10777.2 105.889 10777.7 106.599C10778.3 107.31 10778.5 108.119 10778.5 109.028C10778.5 109.994 10778.2 110.835 10777.6 111.551C10777 112.261 10776.2 112.705 10775.3 112.881V113.017C10776 113.131 10776.7 113.389 10777.2 113.793C10777.8 114.19 10778.3 114.69 10778.7 115.293C10779 115.895 10779.2 116.557 10779.2 117.278C10779.2 118.222 10778.9 119.068 10778.3 119.818C10777.7 120.562 10776.8 121.153 10775.8 121.591C10774.7 122.023 10773.5 122.239 10772.1 122.239ZM10772.1 119.247C10772.7 119.247 10773.1 119.151 10773.5 118.957C10773.9 118.759 10774.2 118.483 10774.4 118.131C10774.6 117.778 10774.8 117.381 10774.8 116.938C10774.8 116.483 10774.6 116.08 10774.4 115.727C10774.2 115.375 10773.9 115.099 10773.5 114.901C10773.1 114.696 10772.6 114.594 10772.1 114.594C10771.6 114.594 10771.2 114.696 10770.8 114.901C10770.4 115.099 10770.1 115.375 10769.9 115.727C10769.6 116.08 10769.5 116.483 10769.5 116.938C10769.5 117.381 10769.6 117.778 10769.8 118.131C10770.1 118.477 10770.4 118.75 10770.8 118.949C10771.2 119.148 10771.6 119.247 10772.1 119.247ZM10772.1 111.619C10772.6 111.619 10773 111.528 10773.3 111.347C10773.7 111.165 10773.9 110.912 10774.1 110.588C10774.3 110.264 10774.4 109.898 10774.4 109.489C10774.4 109.08 10774.3 108.719 10774.1 108.406C10773.9 108.094 10773.7 107.849 10773.3 107.673C10773 107.491 10772.6 107.401 10772.1 107.401C10771.7 107.401 10771.3 107.491 10771 107.673C10770.6 107.849 10770.3 108.094 10770.1 108.406C10770 108.719 10769.9 109.08 10769.9 109.489C10769.9 109.898 10770 110.264 10770.1 110.588C10770.3 110.906 10770.6 111.159 10771 111.347C10771.3 111.528 10771.7 111.619 10772.1 111.619ZM10788.8 122.426C10787.2 122.426 10785.9 122.065 10784.8 121.344C10783.7 120.616 10782.9 119.574 10782.3 118.216C10781.7 116.852 10781.4 115.213 10781.4 113.298C10781.4 111.384 10781.7 109.759 10782.3 108.423C10782.9 107.082 10783.7 106.062 10784.8 105.364C10785.9 104.659 10787.2 104.307 10788.8 104.307C10790.3 104.307 10791.6 104.659 10792.7 105.364C10793.8 106.062 10794.7 107.082 10795.3 108.423C10795.8 109.764 10796.1 111.389 10796.1 113.298C10796.1 115.219 10795.8 116.861 10795.2 118.224C10794.6 119.588 10793.8 120.631 10792.7 121.352C10791.6 122.068 10790.3 122.426 10788.8 122.426ZM10788.8 118.974C10789.7 118.974 10790.4 118.511 10791 117.585C10791.5 116.653 10791.8 115.224 10791.8 113.298C10791.8 112.037 10791.7 110.997 10791.4 110.179C10791.2 109.355 10790.8 108.741 10790.4 108.338C10789.9 107.935 10789.4 107.733 10788.8 107.733C10787.9 107.733 10787.1 108.19 10786.6 109.105C10786 110.014 10785.7 111.412 10785.7 113.298C10785.7 114.577 10785.8 115.636 10786.1 116.477C10786.3 117.318 10786.7 117.946 10787.2 118.361C10787.6 118.77 10788.2 118.974 10788.8 118.974ZM10803.7 122V108.909H10807.7V111.312H10807.9C10808.1 110.517 10808.6 109.889 10809.2 109.429C10809.9 108.969 10810.7 108.739 10811.6 108.739C10812.5 108.739 10813.2 108.972 10813.9 109.438C10814.5 109.903 10814.9 110.528 10815.1 111.312H10815.3C10815.5 110.534 10816 109.912 10816.7 109.446C10817.4 108.974 10818.2 108.739 10819.2 108.739C10820.4 108.739 10821.4 109.136 10822.2 109.932C10823 110.722 10823.4 111.807 10823.4 113.188V122H10819.2V114.142C10819.2 113.489 10819 112.991 10818.7 112.651C10818.4 112.304 10817.9 112.131 10817.4 112.131C10816.8 112.131 10816.4 112.318 10816.1 112.693C10815.7 113.062 10815.6 113.56 10815.6 114.185V122H10811.6V114.099C10811.6 113.491 10811.4 113.011 10811.1 112.659C10810.7 112.307 10810.3 112.131 10809.8 112.131C10809.4 112.131 10809.1 112.219 10808.8 112.395C10808.5 112.565 10808.3 112.81 10808.1 113.128C10808 113.446 10807.9 113.821 10807.9 114.253V122H10803.7ZM10826 122V108.909H10830.1V122H10826ZM10828.1 107.384C10827.5 107.384 10827 107.19 10826.5 106.804C10826.1 106.412 10825.9 105.94 10825.9 105.389C10825.9 104.844 10826.1 104.378 10826.5 103.991C10827 103.599 10827.5 103.403 10828.1 103.403C10828.6 103.403 10829.1 103.599 10829.6 103.991C10830 104.378 10830.2 104.844 10830.2 105.389C10830.2 105.94 10830 106.412 10829.6 106.804C10829.1 107.19 10828.6 107.384 10828.1 107.384ZM10837 114.534V122H10832.8V108.909H10836.7V111.312H10836.9C10837.2 110.511 10837.7 109.884 10838.4 109.429C10839.1 108.969 10839.9 108.739 10840.9 108.739C10841.8 108.739 10842.6 108.946 10843.3 109.361C10843.9 109.77 10844.5 110.344 10844.9 111.082C10845.2 111.815 10845.4 112.673 10845.4 113.656V122H10841.2V114.474C10841.3 113.747 10841.1 113.179 10840.7 112.77C10840.3 112.361 10839.8 112.156 10839.2 112.156C10838.7 112.156 10838.3 112.253 10838 112.446C10837.7 112.634 10837.4 112.903 10837.2 113.256C10837 113.608 10837 114.034 10837 114.534Z" fill="#0A0A0A"/>
<rect width="4" height="60" transform="translate(10947.4)" fill="#0A0A0A"/>
<rect width="4" height="60" transform="translate(11093.8)" fill="#0A0A0A"/>
<rect width="4" height="60" transform="translate(11240.3)" fill="#0A0A0A"/>
<rect width="4" height="60" transform="translate(11386.7)" fill="#0A0A0A"/>
<rect width="6" height="90" transform="translate(11532.2)" fill="#0A0A0A"/>
<path d="M11502.6 122.239C11501.2 122.239 11500 122.023 11498.9 121.591C11497.9 121.153 11497 120.562 11496.4 119.818C11495.8 119.068 11495.5 118.222 11495.5 117.278C11495.5 116.557 11495.7 115.895 11496.1 115.293C11496.4 114.69 11496.9 114.19 11497.5 113.793C11498.1 113.389 11498.7 113.131 11499.5 113.017V112.881C11498.5 112.705 11497.7 112.259 11497.1 111.543C11496.5 110.827 11496.2 109.989 11496.2 109.028C11496.2 108.119 11496.5 107.31 11497 106.599C11497.6 105.889 11498.3 105.33 11499.3 104.92C11500.3 104.511 11501.3 104.307 11502.6 104.307C11503.8 104.307 11504.9 104.511 11505.9 104.92C11506.8 105.33 11507.6 105.889 11508.1 106.599C11508.7 107.31 11509 108.119 11509 109.028C11509 109.994 11508.7 110.835 11508.1 111.551C11507.4 112.261 11506.7 112.705 11505.7 112.881V113.017C11506.4 113.131 11507.1 113.389 11507.7 113.793C11508.3 114.19 11508.8 114.69 11509.1 115.293C11509.5 115.895 11509.6 116.557 11509.6 117.278C11509.6 118.222 11509.3 119.068 11508.7 119.818C11508.1 120.562 11507.3 121.153 11506.2 121.591C11505.2 122.023 11503.9 122.239 11502.6 122.239ZM11502.6 119.247C11503.1 119.247 11503.6 119.151 11503.9 118.957C11504.3 118.759 11504.6 118.483 11504.9 118.131C11505.1 117.778 11505.2 117.381 11505.2 116.938C11505.2 116.483 11505.1 116.08 11504.9 115.727C11504.6 115.375 11504.3 115.099 11503.9 114.901C11503.5 114.696 11503.1 114.594 11502.6 114.594C11502.1 114.594 11501.6 114.696 11501.2 114.901C11500.8 115.099 11500.5 115.375 11500.3 115.727C11500.1 116.08 11500 116.483 11500 116.938C11500 117.381 11500.1 117.778 11500.3 118.131C11500.5 118.477 11500.8 118.75 11501.2 118.949C11501.6 119.148 11502.1 119.247 11502.6 119.247ZM11502.6 111.619C11503 111.619 11503.4 111.528 11503.8 111.347C11504.1 111.165 11504.4 110.912 11504.6 110.588C11504.8 110.264 11504.9 109.898 11504.9 109.489C11504.9 109.08 11504.8 108.719 11504.6 108.406C11504.4 108.094 11504.1 107.849 11503.8 107.673C11503.4 107.491 11503 107.401 11502.6 107.401C11502.1 107.401 11501.7 107.491 11501.4 107.673C11501.1 107.849 11500.8 108.094 11500.6 108.406C11500.4 108.719 11500.3 109.08 11500.3 109.489C11500.3 109.898 11500.4 110.264 11500.6 110.588C11500.8 110.906 11501.1 111.159 11501.4 111.347C11501.8 111.528 11502.1 111.619 11502.6 111.619ZM11518.7 122.239C11517.4 122.239 11516.3 122.009 11515.3 121.548C11514.3 121.088 11513.5 120.455 11512.9 119.648C11512.4 118.841 11512.1 117.915 11512 116.869H11516.1C11516.2 117.511 11516.4 118.028 11516.9 118.42C11517.4 118.807 11518 119 11518.7 119C11519.2 119 11519.7 118.884 11520.1 118.651C11520.5 118.418 11520.8 118.091 11521 117.67C11521.3 117.244 11521.4 116.756 11521.4 116.205C11521.4 115.642 11521.3 115.151 11521 114.73C11520.8 114.31 11520.5 113.983 11520.1 113.75C11519.6 113.511 11519.2 113.392 11518.6 113.392C11518.1 113.386 11517.7 113.497 11517.2 113.724C11516.8 113.952 11516.4 114.261 11516.2 114.653L11512.5 113.955L11513.2 104.545H11524.4V107.946H11516.7L11516.3 112.062H11516.4C11516.7 111.58 11517.1 111.182 11517.8 110.869C11518.4 110.551 11519.2 110.392 11520 110.392C11521 110.392 11522 110.636 11522.8 111.125C11523.6 111.608 11524.3 112.278 11524.7 113.136C11525.2 113.994 11525.4 114.977 11525.4 116.085C11525.4 117.284 11525.2 118.347 11524.6 119.273C11524 120.199 11523.2 120.926 11522.2 121.455C11521.2 121.977 11520 122.239 11518.7 122.239ZM11532.9 122V108.909H11536.9V111.312H11537.1C11537.3 110.517 11537.8 109.889 11538.4 109.429C11539.1 108.969 11539.9 108.739 11540.8 108.739C11541.7 108.739 11542.4 108.972 11543.1 109.438C11543.7 109.903 11544.1 110.528 11544.3 111.312H11544.5C11544.7 110.534 11545.2 109.912 11545.9 109.446C11546.6 108.974 11547.4 108.739 11548.4 108.739C11549.6 108.739 11550.7 109.136 11551.4 109.932C11552.2 110.722 11552.6 111.807 11552.6 113.188V122H11548.4V114.142C11548.4 113.489 11548.2 112.991 11547.9 112.651C11547.6 112.304 11547.1 112.131 11546.6 112.131C11546 112.131 11545.6 112.318 11545.3 112.693C11544.9 113.062 11544.8 113.56 11544.8 114.185V122H11540.8V114.099C11540.8 113.491 11540.6 113.011 11540.3 112.659C11539.9 112.307 11539.5 112.131 11539 112.131C11538.6 112.131 11538.3 112.219 11538 112.395C11537.7 112.565 11537.5 112.81 11537.3 113.128C11537.2 113.446 11537.1 113.821 11537.1 114.253V122H11532.9ZM11555.2 122V108.909H11559.3V122H11555.2ZM11557.3 107.384C11556.7 107.384 11556.2 107.19 11555.7 106.804C11555.3 106.412 11555.1 105.94 11555.1 105.389C11555.1 104.844 11555.3 104.378 11555.7 103.991C11556.2 103.599 11556.7 103.403 11557.3 103.403C11557.8 103.403 11558.3 103.599 11558.8 103.991C11559.2 104.378 11559.4 104.844 11559.4 105.389C11559.4 105.94 11559.2 106.412 11558.8 106.804C11558.3 107.19 11557.8 107.384 11557.3 107.384ZM11566.2 114.534V122H11562V108.909H11565.9V111.312H11566.1C11566.4 110.511 11566.9 109.884 11567.6 109.429C11568.3 108.969 11569.1 108.739 11570.1 108.739C11571 108.739 11571.8 108.946 11572.5 109.361C11573.2 109.77 11573.7 110.344 11574.1 111.082C11574.4 111.815 11574.6 112.673 11574.6 113.656V122H11570.4V114.474C11570.5 113.747 11570.3 113.179 11569.9 112.77C11569.5 112.361 11569 112.156 11568.4 112.156C11567.9 112.156 11567.5 112.253 11567.2 112.446C11566.9 112.634 11566.6 112.903 11566.4 113.256C11566.3 113.608 11566.2 114.034 11566.2 114.534Z" fill="#0A0A0A"/>
<rect width="4" height="60" transform="translate(11677.2)" fill="#0A0A0A"/>
<rect width="4" height="60" transform="translate(11823.6)" fill="#0A0A0A"/>
<rect width="4" height="60" transform="translate(11970.1)" fill="#0A0A0A"/>
<rect width="4" height="60" transform="translate(12116.5)" fill="#0A0A0A"/>
<rect width="6" height="90" transform="translate(12262)" fill="#0A0A0A"/>
<path d="M12231.6 104.307C12232.5 104.307 12233.4 104.463 12234.3 104.776C12235.2 105.082 12236 105.574 12236.6 106.25C12237.3 106.92 12237.9 107.804 12238.2 108.901C12238.6 109.997 12238.8 111.335 12238.8 112.915C12238.8 114.369 12238.7 115.673 12238.3 116.827C12238 117.974 12237.5 118.952 12236.8 119.759C12236.2 120.565 12235.4 121.182 12234.5 121.608C12233.6 122.028 12232.6 122.239 12231.5 122.239C12230.3 122.239 12229.2 122.003 12228.2 121.531C12227.3 121.054 12226.6 120.412 12226 119.605C12225.4 118.798 12225.1 117.895 12225 116.895H12229.2C12229.3 117.474 12229.6 117.912 12230 118.207C12230.4 118.497 12230.9 118.642 12231.5 118.642C12232.6 118.642 12233.4 118.179 12233.9 117.253C12234.4 116.327 12234.7 115.068 12234.7 113.477H12234.6C12234.3 114 12234 114.449 12233.5 114.824C12233.1 115.199 12232.6 115.486 12232 115.685C12231.4 115.884 12230.8 115.983 12230.1 115.983C12229.1 115.983 12228.2 115.744 12227.4 115.267C12226.6 114.79 12226 114.134 12225.5 113.298C12225 112.463 12224.8 111.509 12224.8 110.435C12224.8 109.23 12225.1 108.168 12225.7 107.247C12226.2 106.321 12227 105.599 12228 105.082C12229.1 104.56 12230.2 104.301 12231.6 104.307ZM12231.6 107.545C12231.1 107.545 12230.6 107.668 12230.2 107.912C12229.8 108.156 12229.5 108.486 12229.2 108.901C12229 109.315 12228.9 109.781 12228.9 110.298C12228.9 110.815 12229 111.281 12229.3 111.696C12229.5 112.111 12229.8 112.44 12230.2 112.685C12230.6 112.929 12231.1 113.051 12231.6 113.051C12232 113.051 12232.3 112.98 12232.7 112.838C12233 112.696 12233.3 112.5 12233.5 112.25C12233.8 111.994 12234 111.699 12234.1 111.364C12234.2 111.028 12234.3 110.67 12234.3 110.29C12234.3 109.784 12234.2 109.324 12233.9 108.909C12233.7 108.494 12233.4 108.165 12233 107.92C12232.6 107.67 12232.1 107.545 12231.6 107.545ZM12248.4 122.426C12246.8 122.426 12245.5 122.065 12244.4 121.344C12243.3 120.616 12242.5 119.574 12241.9 118.216C12241.3 116.852 12241 115.213 12241 113.298C12241 111.384 12241.3 109.759 12241.9 108.423C12242.5 107.082 12243.3 106.062 12244.4 105.364C12245.5 104.659 12246.8 104.307 12248.4 104.307C12249.9 104.307 12251.2 104.659 12252.3 105.364C12253.4 106.062 12254.3 107.082 12254.9 108.423C12255.5 109.764 12255.8 111.389 12255.7 113.298C12255.7 115.219 12255.5 116.861 12254.9 118.224C12254.3 119.588 12253.4 120.631 12252.3 121.352C12251.2 122.068 12249.9 122.426 12248.4 122.426ZM12248.4 118.974C12249.3 118.974 12250 118.511 12250.6 117.585C12251.1 116.653 12251.4 115.224 12251.4 113.298C12251.4 112.037 12251.3 110.997 12251 110.179C12250.8 109.355 12250.4 108.741 12250 108.338C12249.5 107.935 12249 107.733 12248.4 107.733C12247.5 107.733 12246.7 108.19 12246.2 109.105C12245.6 110.014 12245.3 111.412 12245.3 113.298C12245.3 114.577 12245.5 115.636 12245.7 116.477C12246 117.318 12246.3 117.946 12246.8 118.361C12247.2 118.77 12247.8 118.974 12248.4 118.974ZM12263.4 122V108.909H12267.3V111.312H12267.5C12267.7 110.517 12268.2 109.889 12268.8 109.429C12269.5 108.969 12270.3 108.739 12271.2 108.739C12272.1 108.739 12272.9 108.972 12273.5 109.438C12274.1 109.903 12274.6 110.528 12274.7 111.312H12274.9C12275.1 110.534 12275.6 109.912 12276.3 109.446C12277 108.974 12277.9 108.739 12278.8 108.739C12280.1 108.739 12281.1 109.136 12281.8 109.932C12282.6 110.722 12283 111.807 12283 113.188V122H12278.8V114.142C12278.8 113.489 12278.7 112.991 12278.3 112.651C12278 112.304 12277.6 112.131 12277 112.131C12276.4 112.131 12276 112.318 12275.7 112.693C12275.3 113.062 12275.2 113.56 12275.2 114.185V122H12271.2V114.099C12271.2 113.491 12271 113.011 12270.7 112.659C12270.3 112.307 12269.9 112.131 12269.4 112.131C12269 112.131 12268.7 112.219 12268.4 112.395C12268.1 112.565 12267.9 112.81 12267.8 113.128C12267.6 113.446 12267.5 113.821 12267.5 114.253V122H12263.4ZM12285.6 122V108.909H12289.7V122H12285.6ZM12287.7 107.384C12287.1 107.384 12286.6 107.19 12286.2 106.804C12285.7 106.412 12285.5 105.94 12285.5 105.389C12285.5 104.844 12285.7 104.378 12286.2 103.991C12286.6 103.599 12287.1 103.403 12287.7 103.403C12288.3 103.403 12288.8 103.599 12289.2 103.991C12289.6 104.378 12289.8 104.844 12289.8 105.389C12289.8 105.94 12289.6 106.412 12289.2 106.804C12288.8 107.19 12288.3 107.384 12287.7 107.384ZM12296.6 114.534V122H12292.4V108.909H12296.4V111.312H12296.5C12296.8 110.511 12297.3 109.884 12298 109.429C12298.7 108.969 12299.5 108.739 12300.5 108.739C12301.4 108.739 12302.2 108.946 12302.9 109.361C12303.6 109.77 12304.1 110.344 12304.5 111.082C12304.8 111.815 12305 112.673 12305 113.656V122H12300.9V114.474C12300.9 113.747 12300.7 113.179 12300.3 112.77C12299.9 112.361 12299.4 112.156 12298.8 112.156C12298.3 112.156 12297.9 112.253 12297.6 112.446C12297.3 112.634 12297 112.903 12296.8 113.256C12296.7 113.608 12296.6 114.034 12296.6 114.534Z" fill="#0A0A0A"/>
</svg>
